<svg width="100" height="100" version="1.1" id="svg5" xmlns="http://www.w3.org/2000/svg">
    <g id="layer1" transform="translate(32.196 -54.347)">
        <style>
            #icon {
                fill: #484;
                stroke: #484;
            }

            @media (prefers-color-scheme:dark) {
                #icon {
                    fill: #70c270;
                    /* #FF00FF; */
                    stroke: #70c270;
                    /* #FF00FF; */
                }
            }
        </style>
        <path
            style="display:inline;fill-opacity:1;stroke-width:1.5;stroke-linecap:butt;stroke-linejoin:round;stroke-miterlimit:4;stroke-dasharray:none;stroke-dashoffset:0;stroke-opacity:1;paint-order:markers stroke fill"
            d="M1.995 143.01c-.249-.196-.426-.219-1.119-.145-1.45.156-2.734-.47-2.734-1.33 0-.571.825-1.058 1.084-.638.054.085.136.09.23.013.082-.067.406-.189.72-.272.671-.178 1.045-.47.96-.753-.243-.814-.174-1.917.12-1.917.233 0 .292.22.392 1.456l.089 1.093-.653.276c-.681.288-.791.497-.483.919.47.644 2.678-.414 2.447-1.173-.033-.12-.1-.734-.142-1.363-.04-.63-.129-1.199-.195-1.265-.562-.566.615-1.977 1.649-1.977.126 0 .435-.194.687-.43a3.463 3.463 0 0 1 1.049-.634c.326-.11.719-.331.874-.49.831-.853 1.87-1.346 2.015-.956.077.21.41-.109.529-.509.125-.417-.335-.379-1.203.1-.384.212-.956.5-1.27.642-.316.141-.802.375-1.081.52-1.028.534-1.74.422-1.356-.213.416-.689-.324-.518-1.201.277a7.495 7.495 0 0 1-.586.486c-.104.07-.417.287-.696.48-1.074.749-3.932 1.453-5.631 1.388-1.181-.046-1.934.896-1.52 1.897.192.463.454.463 1.014.003.531-.436.74-.505 1.65-.54.974-.04 1.017-.068.994-.64-.02-.524.158-.833.395-.686.078.046.116.126.087.173-.162.263.523 1.243 1.035 1.481.297.138.54.318.54.398 0 .29-.494.275-.938-.027-.842-.572-2.868-.436-2.552.173.396.763-.767 1.386-1.751.938-1.422-.648-1.94-2.632-.8-3.066.605-.23-.173-.636-1.217-.636-.14 0-.423-.087-.63-.194-.205-.107-.374-.163-.374-.124 0 .04-.129-.014-.286-.11-.158-.098-.668-.303-1.135-.455-.466-.152-.922-.365-1.012-.473-.09-.108-.641-.42-1.224-.694-.719-.337-1.126-.61-1.263-.849-.11-.193-.427-.46-.702-.595-1.118-.544-.96-1.085.442-1.514.357-.11.256-.33-.15-.33-.436 0-1.048-.213-1.166-.404-.054-.09-.23-.08-.543.034-.674.243-.936-.04-.287-.315.556-.233.64-.625.121-.563-.222.026-.413.172-.55.421-.32.579-1.144.47-1.144-.15 0-.096-.132-.224-.293-.285-.162-.06-.548-.437-.858-.835a21.323 21.323 0 0 0-1.239-1.417c-.475-.49-.652-.762-.6-.924a.394.394 0 0 0-.122-.39c-.106-.088-.193-.233-.193-.32 0-.088-.086-.231-.19-.318-.747-.62.11-1.423 1.162-1.091.455.143.869.192 1.184.138.266-.046.718-.02 1.004.06.682.184 1.458.185 2.242.003.35-.08 1.18-.163 1.843-.184a16.43 16.43 0 0 0 2.225-.238c1.319-.26 1.71-.323 2.86-.453.524-.06 1.153-.196 1.398-.302.913-.4 2.913-.788 3.303-.64.2.075.41.095.468.046.06-.053.378-.19.71-.313.855-.315.758-.41-.517-.51-1.281-.1-1.526-.228-2.769-1.44-.296-.287-.55-.416-.841-.422a6.735 6.735 0 0 1-.672-.054c-.14-.027-.437-.08-.662-.122a3.182 3.182 0 0 1-.762-.26c-.196-.103-.434-.186-.53-.187-.095 0-.675-.516-1.287-1.145-.78-.802-1.203-1.144-1.414-1.145-2.234-.014-5.53-3.035-3.511-3.22.437-.04.98-.11 1.207-.156.26-.053.413-.033.413.053 0 .075-.196.173-.436.218-.462.087-.91.468-.785.669.147.239.767.257 1.092.033.453-.313.744-.4.837-.249.102.165-.284.459-.74.562-.26.06-.349.156-.349.384 0 .226.054.283.204.225.112-.04.253.002.313.1.074.119.314.168.738.15.452-.02.648.027.7.16.084.22.451.235 1.087.046.372-.112.561-.1.94.06.345.144.563.165.797.076.442-.168.56-.154.56.068 0 .116-.119.19-.304.19-.417 0-.904.413-.802.68.112.292.446.257 1.042-.11.589-.363.7-.384.7-.131 0 .232-.487.579-.813.579-.136 0-.356.097-.487.217-.196.177-.284.188-.487.06-.136-.085-.247-.108-.247-.047 0 .151.769.697.857.608.04-.04.006-.074-.073-.074-.082 0-.148-.06-.148-.127 0-.07.103-.128.23-.128s.467-.114.756-.254c.634-.306.941-.33.84-.067a.311.311 0 0 1-.266.191c-.23 0-1.18.519-1.18.645 0 .24.574.179 1.395-.151.5-.202.964-.366 1.03-.366.234 0 .112.238-.168.325-.157.047-.454.208-.659.352l-.374.263.374.16c.548.234 1.225.204 1.853-.082.58-.263.84-.161 1.028.402.033.104.225.086.668-.067 1.219-.415 1.26-.165.06.373-.812.364-.95.62-.44.814.174.067.317.18.317.251 0 .22.57.145 1.287-.169.376-.165.84-.337 1.033-.383.578-.141.394.136-.254.38-1.18.446-1.32.554-.715.556.288 0 .77-.086 1.069-.192.486-.171.575-.171.838.001.267.174.355.17.915-.04.736-.28 1.37-.227 1.46.12.093.354.649.302 1.546-.144.735-.365 1.564-.513 1.401-.25-.04.07-.207.127-.364.127-.405 0-.834.34-.612.487.213.14.79.04 1.047-.182.208-.18 1.197-.562 1.44-.555.078.002.039.06-.08.133-.122.072-.222.184-.222.25 0 .168.728.153.833-.02.102-.164 1.212-.656 1.295-.573.101.102-.107.337-.23.26-.067-.04-.118-.013-.118.067 0 .185.535.077.942-.19.332-.217 2.202-.289 2.689-.102.525.202-.149 1.814-1.175 2.816-.655.639-1.694 1.78-1.694 1.862 0 .046-.257.455-.571.915-.644.939-.764 1.518-.287 1.37.735-.228 2.43-1.194 2.956-1.685.14-.131.454-.358.699-.504.245-.147.729-.556 1.076-.91.69-.704.766-.741.883-.437.046.124-.092.465-.35.858-.895 1.361-.974 1.643-.538 1.929.382.25 1.872-.308 2.693-1.009a5.99 5.99 0 0 1 .923-.642c.503-.258.846-.562 2.674-2.359 2.446-2.406 2.738-2.913 1.359-2.361-2.384.954-4.251.618-4.119-.74.06-.616.554-.619 1.07-.004 1.052 1.253 4.331-.31 6.76-3.22.539-.645.916-.768.916-.299 0 .434-1.36 2.054-2.327 2.771-.723.537-.748.84-.101 1.275.812.547 2.654.297 3.778-.512.358-.258.742-.468.853-.468.437 0 3.009-2.811 3.009-3.289 0-.053.315-.55.699-1.102.384-.553.699-1.103.699-1.223 0-.375.516-1.123.775-1.123.458 0-.083 1.518-.93 2.605-.566.728-1.243 1.712-1.243 1.806 0 .232-1.863 2.195-2.085 2.197-.06 0-.358.202-.657.446-.299.245-.59.445-.65.445-.06 0-.178.115-.265.254-.224.359-.033.33.97-.147 1.655-.788 2.975-1.705 4.03-2.798.916-.95 1.834-2.052 1.834-2.2 0-.073.594-.916.762-1.083a.668.668 0 0 0 .106-.254c.02-.105.166-.391.317-.636.15-.245.256-.524.234-.622-.02-.097.006-.211.067-.254.426-.313.77-1.413.528-1.691a.997.997 0 0 1-.22-.67c.074-1.138-.123-1.324-.947-.894-1.74.907-2.94.254-1.988-1.082.473-.664.884-.37.437.312-.425.65.647.604 3.14-.13.546-.162.683.695.208 1.305-.121.156.213.803.415.803.71 0 2.542-.62 4.02-1.359l1.165-.584.534.214c.687.275 1.467-.085 2.675-1.234.428-.407.4-.542-.141-.66-.405-.09-.633-.385-.633-.822 0-.48-.282-.473-2.161.054-.384.107-.814.253-.953.325-2.071 1.053-4.17.914-3.63-.24.373-.795.294-.893-.493-.614-.338.12-.724.218-.858.218s-.298.047-.364.102c-.297.248-1.088.427-1.259.285-.128-.106-.185-.104-.221.005-.047.14-.566.267-1.834.451-.755.11-1.017-.645-.444-1.284.43-.48.45-.744.046-.657-.81.173-3.596.342-3.986.241-1.113-.288-.462-.458 2.3-.6.664-.033 1.551-.156 1.97-.27 1.257-.345 1.335-.354 1.335-.148 0 .255-.589 1.117-.983 1.438-.463.378-.313.812.257.744.594-.07 1.963-.39 2.697-.628.35-.114.836-.256 1.08-.314.245-.06.824-.251 1.286-.427 1.246-.473 1.378.276.219 1.251-.638.537.073.804 1.054.396.235-.098.771-.22 1.19-.27.42-.054.907-.165 1.081-.253.273-.138 1.287-.411 2.406-.647.169-.034.449-.177.62-.312.675-.53.939-.208.476.58l-.33.566.258.258c.513.513 2.427-.082 2.674-.83.077-.235.352-.608.61-.83 1.738-1.5 1.975-1.838 1.199-1.714-1.608.258-1.848.244-2.86-.178-.669-.279-1.068-.377-1.267-.315-.296.092-1.661.726-2.006.931-1.603.952-3.166.842-2.171-.153.566-.567-.013-.865-1.007-.518-1.341.47-2.527-.228-1.878-1.105.382-.517.17-.638-.95-.546-.547.047-.858.027-.858-.06 0-.244.297-.315 1.458-.35.638-.019 1.236-.052 1.329-.073.325-.078.263.233-.17.84-.24.338-.405.693-.369.789.08.207 1.631.249 1.756.047.04-.07.25-.127.459-.127.21 0 .59-.143.848-.318 1.056-.717 1.244-.26.342.83-.818.989-.764 1.29.152.834l1.186-.585a24.343 24.343 0 0 0 1.335-.708c1.15-.683 1.039-.69 2.23.138.604.42 1.298.468 2.6.18 1-.22 3.422-1.453 3.997-2.034a6.22 6.22 0 0 1 .77-.63c.864-.585.759-.839-.27-.65-.376.07-.732.08-.79.02-.153-.147.004-.215.934-.402.453-.091.853-.196.888-.233.076-.081.548-.358 1.087-.64.906-.471 2.295-1.583 2.529-2.023.213-.403 1.965-1.073 2.39-.916.158.06.357.08.443.053.086-.033.325.067.53.21.943.673 1.844-1.587 1.104-2.77-.158-.252-2.718-.02-3.462.312-.22.099-.551.18-.735.18-.185 0-.547.09-.807.202-.26.11-.813.312-1.228.447-.917.298-1.215.548-1.215 1.019 0 1.694-2.47 3.036-3.851 2.093-.496-.338-.98-.434-.98-.193 0 .212-.57.078-.577-.136-.027-.952 1.518-2.065 3.105-2.235.237-.027.642-.156.9-.29a3.46 3.46 0 0 1 .905-.31c.238-.034.806-.19 1.26-.34.455-.152.913-.296 1.017-.32 1.675-.386 1.727-1.209.078-1.255-.467-.013-.65-.068-.65-.198 0-.099-.071-.204-.159-.233-.09-.033-.159.054-.159.196 0 .382-1.11.673-1.344.352-.173-.236-1.013-.033-.863.21.033.054-.034.1-.145.1-.112 0-.176-.046-.14-.106.033-.06-.013-.106-.114-.106-.098 0-.156.04-.128.082.066.106-2.18.808-2.316.723-.143-.088-1.647.27-2.085.496-.196.102-.401.174-.456.16-.477-.121-2.175.475-3.086 1.083-.473.315-.717.386-1.399.407-.778.027-1.65.2-2.224.452-.381.166-2.5.893-2.824.967-.734.17-.703.88.033.76.583-.094 1.202.123 1.202.423 0 .277-.24.386-.525.24-.327-.168-2.256-.258-2.518-.118-.174.093-.278.074-.4-.074-.335-.403.1-.823 1.728-1.664 2.056-1.064 2.079-1.073 2.737-1.121.54-.04 1.81-.461 2.093-.695.07-.06.355-.148.633-.2.278-.053.678-.2.89-.329.21-.128.502-.234.647-.235.146 0 .742-.258 1.325-.572.584-.315 1.123-.573 1.198-.574.195-.002 1.069-.315 1.173-.42.047-.046.194-.086.325-.086.13 0 .37-.088.535-.195.163-.107.605-.23.98-.272.376-.04.76-.136.852-.21.093-.073.724-.14 1.403-.148.679-.007 1.29-.047 1.357-.092.067-.04.314-.053.546-.027.465.054.534 0 1.77-1.403.366-.416.667-.69.667-.608 0 .081-.164.336-.364.565-.586.673-.82 1.201-.575 1.296.264.101.43-.014.43-.3 0-.128.09-.268.201-.31.314-.12.34-.097.258.228-.076.302.611 1.093.95 1.093.165 0 .742-.653.748-.845.004-.167.89-.725.991-.625.033.033-.007.154-.097.262-.272.328-.02.382.383.083.569-.42.457-.147-.202.495-.814.792-1.026 1.213-.698 1.388.312.168.733.17.835.005.04-.07.25-.127.46-.127.56 0 .824-.178 1.992-1.343.617-.615 1.018-.936.967-.776-.085.268-.4.582-.59.59-.054.002-.096.088-.096.19 0 .103-.172.314-.382.47-.21.154-.381.356-.381.448 0 .26.23.197.391-.106.192-.358.962-1.125 1.13-1.125.072 0 .131-.06.131-.132 0-.167.485-.696.565-.616.034.033-.228.371-.579.753-.814.886-.895 1.104-.79 2.135.101.999.102 1.362.002 2.337-.04.41-.02.76.047.802.226.14.132.939-.142 1.212-.333.333-1.517.128-1.517-.263 0-.644-.96-.483-2.056.346-.396.3-.769.546-.826.547-.06.001-.24.144-.405.318-.164.173-.393.315-.508.315-.17 0-1.242.786-2.302 1.685-.591.503-1.535 1.08-1.876 1.149-.346.07-1.306.879-1.306 1.1 0 .047-.257.245-.572.444-.314.2-.633.435-.708.526-.075.09-.297.2-.493.243-.582.127-2.717 2.09-2.734 2.512-.02.47-.295.716-1.097.977-.674.22-.731.274-.99.93-.085.216-.234.35-.389.35-.566 0-.993.34-1.033.825-.02.269-.428.57-.868.648-.311.054-.665.28-1.095.696-.35.338-.84.7-1.09.805-.25.104-.53.278-.62.386-.09.11-.243.199-.34.199-.095 0-.175.053-.175.112 0 .06-.329.358-.73.66-1.19.891-2.753 2.381-2.899 2.762-.237.618-1.278 1.303-2.01 1.322-.77.02-1.039-.097-.681-.298.357-.2 2.312-1.683 2.358-1.79.02-.053.252-.35.508-.663.538-.653 1.42-2.244 1.42-2.56 0-.178-.08-.2-.476-.128-.262.047-.705.118-.985.154-.912.12-1.75.825-1.45 1.22.06.083-.538 1.115-.65 1.115-.069 0-.125.107-.125.239 0 .131-.09.313-.2.405-.11.091-.339.437-.506.769-.169.332-.36.636-.427.677-.066.04-.291.417-.5.834l-.38.76.543-.373c.491-.339 1.088-.419 1.088-.146 0 .171-2.59 2.428-2.788 2.428-.053 0-.367.257-.7.572-.603.569-.874.687-1.024.445-.133-.215-.503-.143-.949.187-.234.173-.832.467-1.327.653a68.45 68.45 0 0 0-1.41.547c-.73.3-3.612.277-4.295-.033l-.482-.218-.647.664a28.14 28.14 0 0 0-1.282 1.434c-.734.89-2.246 2.363-2.892 2.815-1.736 1.217-2.498 1.704-2.666 1.706-.106 0-.433.085-.725.187-.947.33-1.566-.068-1.566-1.007 0-.603-.153-.579-1.136.184-1.34 1.04-3.246 1.89-3.697 1.65-.21-.113-.258-.108-.228.026.085.372-1.185 1.884-1.582 1.884-.075 0-.097.04-.047.086.047.047-.047.234-.217.413-.704.759-.468 1.417.33.92 1.362-.848 2.181-1.292 2.383-1.292.488 0 .347.363-.421 1.085-1.818 1.708-1.939 2.825-.186 1.712.44-.278.9-.507 1.022-.508.123 0 .223-.047.223-.097 0-.053.262-.203.581-.334 1.34-.551 1.673.572.514 1.731-.205.206-.76 1.242-.77 1.44-.004.075-.108.236-.23.359-.24.24-.298.586-.101.586.067 0 .21-.186.318-.413.108-.227.412-.592.674-.81 1.392-1.165 2.174-1.802 2.573-2.098.245-.181.76-.626 1.144-.989.385-.362.957-.839 1.271-1.059.315-.22.591-.446.615-.503.027-.053.347-.304.719-.552.372-.247.709-.533.748-.635.04-.103.14-.186.224-.186.084 0 .472-.275.862-.611.978-.843 1.287-1.04 1.659-1.057.254-.013.27-.027.075-.077-.364-.093.59-.892 1.295-1.084.297-.082.54-.188.54-.237 0-.079 1.502-1.23 2.052-1.574.112-.07.52-.368.906-.661.656-.5.727-.525 1.096-.385.368.139.538.348.283.348-.06 0-.276.167-.476.372-.2.205-.645.492-.988.639-.343.147-.806.422-1.03.612-.223.19-.778.632-1.234.982-.455.35-.96.825-1.121 1.057-.162.231-.441.5-.621.596-.18.096-.494.321-.697.5-.204.18-.509.326-.678.326-.306 0-.812.37-2.178 1.594-.758.678-1.565 1.269-2.165 1.584-.2.104-.664.448-1.032.762-1 .855-1.394 1.165-2.095 1.65-1.221.845-1.887 1.737-2.587 3.47-.491 1.214-1.373.12-1.007-1.248.166-.62-.047-1.027-.346-.66a.697.697 0 0 1-.369.199.89.89 0 0 0-.42.22c-.098.099-.519.44-.934.76-.91.7-.901.605-.12 1.46.45.492.617.77.573.95-.429 1.715-.847 3.062-.999 3.213-.568.57-2.47.886-2.967.495zm1.704-.55c.768-.272.929-.518 1.236-1.887.267-1.194-.014-2.352-.568-2.352-.348 0-.58-.914-.282-1.113.36-.238.366-.497.013-.608-.188-.06-.424.027-.784.278-.558.393-.737.68-.423.68s.463.431.537 1.556c.04.577.13 1.174.203 1.326.157.325-.174.876-.793 1.317-.297.21-.377.364-.377.719 0 .51.02.512 1.236.083zm-3.65-.538c0-.132-.567-.523-.758-.523-.244 0-.134.342.154.48.357.172.604.19.604.04zm-3.457-2.82c-.026-.076-.1-.137-.166-.137s-.141.06-.166.136c-.027.076.047.137.166.137.117 0 .192-.06.166-.137zm2.313-3.114c.638-.066 1.526-.372 2.653-.92.655-.319 1.543-1.157 1.232-1.164-.375-.006-1.357.494-1.823.932-.33.31-.462.364-.628.258-.356-.224-.326-.404.146-.877.354-.354.455-.557.458-.926.003-.26.082-.872.176-1.36.187-.964.096-1.464-.264-1.464-.327 0-2.35.765-2.733 1.034-.419.295-.647.303-.593.02.02-.117.499-.518 1.058-.89l1.61-1.07c.572-.38 1.886-1.039 1.886-.947 0 .027.17-.113.377-.307.208-.194.823-.59 1.367-.88.543-.29 1.16-.627 1.37-.748 1.502-.864 1.855-1.033 2.028-.966.307.117.231.274-.174.363-.205.047-.402.161-.44.26-.04.097-.296.293-.574.435a10.74 10.74 0 0 0-1.856 1.219 3.85 3.85 0 0 1-.731.474c-.193.086-.35.198-.35.252 0 .053-.117.096-.26.096a.774.774 0 0 0-.413.127c-.085.07-.292.232-.46.361-.453.346-.226.609.24.277.198-.14.402-.257.454-.257.053 0 .156-.086.234-.192a.739.739 0 0 1 .4-.241c.143-.027.564-.23.935-.448.815-.48.979-.521.93-.232-.033.187.013.203.282.1.5-.19.503.07.002.365-.249.147-.48.267-.513.267-.034 0-.375.231-.758.514-.382.282-.943.62-1.247.75-.495.212-.822.579-.662.74.033.033.453-.225.932-.574 1.203-.875 1.698-1.013.895-.25-.33.314-.563.605-.52.648.19.19.53.04.99-.43.274-.28.571-.508.662-.508.09 0 .165-.06.165-.135 0-.074.2-.397.445-.717.502-.658.54-.799.222-.804-.208-.004-.207-.014.006-.138.127-.073.312-.102.413-.066.104.04.183-.004.183-.103 0-.096.086-.206.19-.246a.324.324 0 0 0 .191-.282c0-.117-.07-.18-.159-.143-.087.033-.258.105-.381.154-.126.053-.222.033-.222-.04 0-.16 1.399-1.168 1.62-1.168.088 0 .16-.121.16-.27 0-.15.175-.478.388-.731 3.24-3.83 3.496-4.495 1.581-4.086-.07.013-.527.11-1.017.213-.601.126-.972.28-1.144.474-.347.393-1.411 1.223-1.568 1.223-.07 0-.29.136-.487.302-.439.369-1.657 1.096-1.836 1.096-.072 0-.38.171-.685.381-.305.21-.615.382-.69.382-.075 0-.136.047-.136.102 0 .098-.619.43-2.459 1.32-.478.232-.897.464-.93.516-.085.14.188.116.48-.04.14-.074.321-.11.406-.078.083.033-.014.122-.218.203a5.98 5.98 0 0 0-.89.498c-.286.193-.613.387-.727.43-.344.132-.54.862-.232.862.136 0 .248-.046.248-.098 0-.053.215-.21.476-.345.262-.135.716-.406 1.008-.6.292-.196.591-.355.664-.355.185 0 2.1-1.141 2.152-1.282.027-.067.124-.116.223-.116s.18-.06.18-.128c0-.22-1.034.134-2.053.702-.378.21-.49.232-.489.093.002-.142.748-.54 1.011-.54a.562.562 0 0 0 .38-.184c.083-.1.324-.22.536-.266.212-.047.651-.242.977-.433l1.672-.987c.594-.35 1.71-.969 2.479-1.373.769-.404 1.464-.786 1.545-.85.09-.07.179-.067.225.006.04.069-.307.315-.776.547-1.351.668-1.227 1.035.14.41.735-.337 1.169-.278 1.01.138-.073.188-.938.573-1.289.573-.2 0-.672.327-1.184.822a.776.776 0 0 1-.466.194c-.145 0-.284.06-.307.126-.02.07-.334.202-.69.295-.387.1-1.128.493-1.835.973-.652.443-1.43.88-1.726.969-.626.188-1.031.43-1.837 1.097-.32.265-.648.48-.731.48-.083 0-.151.04-.152.096-.001.137-.834.685-.974.641-.17-.053-.823.527-1.172 1.044-.673.995-1.655 1.725-1.864 1.386-.123-.198.473-1.353.735-1.427.12-.033.284-.224.363-.423.079-.2.232-.563.34-.807.176-.397.314-.945.436-1.716.053-.324-1.053-.334-1.785-.02-.526.227-3.044.84-3.48.847a1.534 1.534 0 0 0-.606.187c-.404.23-.53.232-.832.013-.325-.238.053-.71.566-.71.182 0 .845-.143 1.474-.317.628-.174 1.319-.317 1.533-.318.621-.003 1.645-.355 1.976-.681.167-.165.607-.4.978-.521.37-.123.822-.36 1.003-.528a1.12 1.12 0 0 1 .742-.304c.227 0 .662-.114.967-.252.305-.138.66-.253.789-.254.213-.003.557-.132 1.481-.556.294-.135.82-.483 1.803-1.194.462-.335.612-.359.612-.097 0 .206-1.473 1.336-1.742 1.336-.09 0-.165.047-.165.11 0 .06-.386.239-.858.396-.472.157-.972.385-1.112.506-.256.223-1.61.788-2.257.943-.262.06-.35.16-.35.393 0 .17-.1.367-.221.437-.165.095-.09.109.286.053.28-.04.654-.21.833-.375.179-.166.397-.302.485-.302.34 0 2.842-1.285 4.779-2.455 1.441-.87 1.932-1.18 2.047-1.29.075-.073.346-.275.603-.45.664-.452.587-.558-.326-.453a33.18 33.18 0 0 1-2.13.143c-.733.027-1.467.083-1.63.122-.188.047-.507-.047-.874-.252-.724-.404-.983-.405-1.384-.005-.174.175-.457.318-.626.318-.322 0-1.462.488-1.606.687-.047.06-.263.134-.482.159-.412.046-4.15 1.259-4.996 1.622-.518.223-.672.544-.191.4.157-.047.744-.201 1.303-.342 1.664-.416 3.72-1.1 4.021-1.336.356-.28.755-.301.612-.033-.072.133-.235.242-.363.242-.129 0-.499.148-.822.328-.324.181-1.118.463-1.764.626a37.48 37.48 0 0 0-2.165.624c-.543.18-1.073.328-1.175.328-.248 0-.696.457-.696.71 0 .372 1.77.074 2.282-.385.108-.097.713-.346 1.342-.553 1.63-.535 4.463-1.731 5.8-2.448.254-.136.583-.247.731-.247.342 0 .352.338.013.445-.14.047-.254.127-.254.184 0 .135-1.113.667-2.16 1.032-.455.159-.884.328-.954.376-.07.047-.299.127-.509.173-.679.152-2.275.87-2.757 1.241-.258.2-.544.363-.636.363-.091.001-.538.122-.992.27-2.936.948-4.156.83-2.903-.282.892-.792.81-.951-.551-1.071-.582-.054-1.176-.138-1.32-.192-.143-.054-.348-.047-.455.013-.239.133-6.391.182-6.88.053-.417-.108-.385.112.116.788.164.223.299.486.299.586 0 .553.966 1.08 1.04.567.053-.386.978-.37 4.48.081.206.027.536-.006.734-.077.762-.266 1.347.259.766.688a2.203 2.203 0 0 0-.43.484c-.112.174-.501.625-.864 1.001-.444.46-.618.726-.531.813.215.214 4.981.076 5.903-.173.648-.174 1.238.392.733.704-.067.04-.153.236-.197.435-.117.534-.906 1.188-2.768 2.293l-.517.307-.223-.275c-.277-.342-.5-.354-.5-.027 0 .474 1.913 1.221 2.253.88.078-.078.476-.163.884-.19 1.174-.075 2.89-.33 3.022-.448.067-.06.252-.108.412-.108.16 0 .706-.11 1.214-.246 1.954-.52 2.638-.492 2.331.094-.262.5-2.183 2.44-2.417 2.44-.254 0-.26-.366-.006-.463.391-.15.217-.453-.206-.36-.904.199-1.274.544-1.05.98l.201.387 1.163-.082c.64-.047 1.478-.114 1.863-.154zm6.425-8.176c.067-.06.264-.15.439-.197.305-.082.308-.077.07.112-.26.208-.723.285-.51.085zm-6.68-4.845c0-.07.06-.126.128-.126.07 0 .127.06.127.126a.13.13 0 0 1-.127.127.13.13 0 0 1-.127-.127zm1.081-.507c.738-.37 1.589-.51 1.589-.261 0 .067-.215.155-.476.197-.262.04-.57.126-.684.188-.114.06-.428.144-.699.185-.474.07-.464.06.27-.31zm6.36 13.268c.172-.113.314-.256.314-.318 0-.23-.474-.102-.763.206-.36.383-.074.455.45.112zm-10.654-.643c.265-.116.713-.317.997-.445.285-.128.683-.232.886-.232.346 0 .95-.498.95-.783 0-.168-.218-.126-.428.083-.104.105-.266.193-.359.196-.282.006-2.702 1.115-2.75 1.259-.066.19.148.168.703-.078zm.1-.687c.209-.087.418-.151.463-.142.047.006.12-.076.162-.188.107-.279-.883-.147-1.623.216-2.024.992-1.306 1.074.997.114zm12.65.199c.448-.284.714-.825.405-.825-.212 0-1.102.518-1.204.7-.276.492.12.554.798.125zm-5.52-1.664c-.079-.205-.103-.206-.289-.02-.122.121-.168.293-.118.426.079.204.103.207.29.02.12-.121.168-.293.116-.426zm1.83-.13c0-.096-.085-.176-.19-.176s-.191.027-.191.054-.033.14-.073.245c-.054.144-.007.174.19.122.146-.04.265-.148.265-.245zm-13.935-.765c.672-.34 1.394-.7 1.604-.8.211-.1.383-.235.383-.3 0-.167-.848.013-1.39.29-.805.416-2.494 1.145-2.651 1.145-.084 0-.154.093-.154.207 0 .35.863.139 2.208-.543zm11.923.369c.026-.054.254-.195.513-.314.47-.218.97-.8.817-.952-.193-.193-1.86 1.14-1.86 1.487 0 .147.45-.04.53-.221zm3.236-.104c.15-.23.173-.364.078-.46-.188-.187-.725.32-.622.587.11.288.303.243.544-.127zm-16.458-.608c1.188-.431 1.427-.584.92-.588a1.346 1.346 0 0 0-.72.25c-.177.14-.492.254-.7.254-.208 0-.45.086-.536.19-.232.28.053.25 1.036-.106zm-1.2-.1c.195-.079.469-.186.609-.238.76-.285.953-.389.953-.506 0-.382-2.187.289-2.478.76-.107.172.473.162.915-.014zm14.972-1.764c.046 0 .325-.163.615-.362.291-.2.687-.458.88-.575.624-.38.368-.476-.302-.114-.357.194-.871.461-1.142.595-.27.135-.525.349-.565.477-.04.128-.128.233-.193.233-.067 0-.119.06-.119.136 0 .075.166.02.369-.126.203-.145.408-.263.456-.263zm-16.978-1.095c.704-.253 1.28-.513 1.28-.576 0-.22-.383-.263-.67-.076-.157.104-.588.253-.958.332-.806.173-1.46.49-1.356.658.12.194.345.15 1.704-.338zm-.874-.446c1.012-.354 1.517-.747.96-.747-.31 0-2.418.86-2.467 1.005-.075.227.304.162 1.507-.258zm-.805-.446c.555-.213.785-.535.258-.365-.158.054-.568.13-.912.174-.344.047-.649.153-.678.24-.076.23.672.203 1.331-.047zm19.286-2.275c.244-.185.244-.187 0-.183-.136.002-.358.088-.494.19-.244.186-.244.188 0 .184.136-.002.358-.088.494-.191zm-11.785-.9c-.04-.039-.152-.046-.244-.005-.101.04-.071.07.077.077.134.005.209-.027.167-.067zm13.636-.105c0-.134-.245-.191-.317-.074-.046.071.007.13.118.13.11 0 .199-.027.199-.054zm1.178-.546c.471-.247.596-.36.43-.393-.254-.047-1.481.484-1.481.644 0 .187.392.094 1.05-.251zm33.351-13.096c.696-.64 1.474-1.303 1.884-1.6.364-.266.06-.63-.386-.46-.17.066-.309.088-.309.053 0-.123-.831.36-1.368.795-.298.241-.51.49-.471.551.04.06-.047.342-.19.621-.451.886-.096.903.84.04zm16.507-12.976c.21-.248.295-.4.19-.335a1.337 1.337 0 0 1-.427.154c-.273.04-.97.434-.97.544 0 .303.864.04 1.207-.363zm-2.94-2.13c1.035-.102 1.86-.771 1.957-1.588.104-.882-.716-.712-.96.198a1.364 1.364 0 0 1-2.253.685c-.401-.352-.492-.382-.773-.254l-.317.145.291.31c.381.407 1.005.726 1.244.636.104-.04.469-.099.81-.132zm6.07-.02a6.37 6.37 0 0 1 .535-.35c.282-.155.231-.393-.075-.35-.553.075-1.112.408-1.112.662 0 .32.247.334.652.04zm-5.969-1.005c.504-.456.22-.754-.527-.553-.542.146-.663.408-.288.626.32.187.551.167.816-.073zm-2.382-3.237c-.082-.133-.309-.027-.309.146 0 .067.086.083.19.04.105-.04.158-.125.119-.189zm.962.013c0-.07-.027-.127-.053-.127-.033 0-.091.06-.135.127-.04.07-.02.128.054.128s.134-.06.134-.128zm7.373-.425c0-.085.226-.343.502-.57.295-.244.474-.489.434-.592-.101-.265-.497-.067-.868.438-.313.423-.454 1.119-.195.959a.3.3 0 0 0 .127-.234zm-6.864.115c0-.033-.06-.091-.128-.135-.07-.04-.126-.02-.126.054s.06.134.126.134c.07 0 .128-.027.128-.053zm-27.253 31.517c-.3-.227-.134-.473.559-.827.254-.129.54-.33.636-.445.257-.31 1.394-.854 1.61-.772.335.13.158.766-.225.81-.181.02-.705.351-1.164.732-.888.737-1.036.79-1.416.501zm-23.01-2.143c.08-.209.29-.315.91-.464.895-.215.312.258-.697.566-.221.067-.27.047-.213-.102zm-5.691-.296c.092-.04.201-.033.243.014.04.04-.033.072-.166.066-.148-.006-.178-.033-.077-.076zm.405-.033c0-.067.129-.19.286-.273.284-.15.285-.148.047.123-.269.303-.33.331-.33.15zm.636-.372c0-.06.09-.148.2-.19.287-.111.309-.1.227.113-.078.203-.428.266-.428.077zm5.536-.748c-.033-.033-.654-.047-1.385-.04-.87.013-1.5-.047-1.82-.162a18.492 18.492 0 0 0-1.06-.343c-.314-.09-.627-.212-.693-.27-.067-.06-.224-.104-.35-.104-.367 0-2.008-.912-2.539-1.41-.75-.706-.625-1.658.172-1.302.178.079.549.046 1.158-.111.493-.126.921-.203.951-.173.106.106-.115.326-.327.327-.118 0-.379.086-.578.19-.2.104-.41.16-.465.126-.053-.033-.072.054-.033.192.081.31-.001.315.956-.047a15.09 15.09 0 0 1 1.75-.513 26.279 26.279 0 0 0 1.43-.353c.264-.079.52-.1.572-.047.152.152-.364.455-.772.455-.395 0-.866.112-2.295.542-.481.145-.953.263-1.048.263-.248 0-.598.423-.493.595.141.228.616.36.85.238.132-.069.246-.06.294.013.047.071-.013.163-.119.205-.11.04-.199.137-.199.21 0 .075.04.098.084.054.046-.046.146-.033.222.033.25.206.766.185 1.24-.046.287-.142.554-.194.698-.134.205.085.19.112-.122.222-.451.159-.38.405.134.456.369.033.973-.178 2.085-.74.255-.13.493-.206.529-.17.033.033.187 0 .337-.08.477-.255 1.371-.48 1.526-.386.204.127-.727.543-1.858.83-.974.249-1.535.574-1.39.808.128.206.777.178.96-.04.2-.24 1.63-.957 1.91-.957.116 0 .249-.04.294-.082.17-.17 1.426-.534 1.521-.44.164.16-1.632.895-2.22.907-.092.002-.367.169-.612.372-.95.79.51.628 2.352-.261.954-.46 2.026-.79 1.809-.554-.095.102-.458.252-1.587.657-1.455.521-.081.55 1.744.033.802-.226 1.377-.329 1.447-.259.208.208-.013.483-.448.547-.36.054-2.41.491-3.22.687-.362.088-1.325.138-1.39.071zM.43 117.373c0-.096.236-.194 1.716-.706.468-.162.488-.16.254.027-.574.451-1.97.935-1.97.682zm-2.415-.253c0-.07.118-.128.261-.128.144 0 .226.06.184.128-.04.07-.161.127-.262.127-.1 0-.183-.06-.183-.127zm1.043-.323c.04-.04.381-.154.755-.25.597-.156.65-.155.434.005-.136.102-.337.189-.445.194a4.266 4.266 0 0 0-.509.067c-.17.033-.276.027-.235-.02zm9.57-.568a14.293 14.293 0 0 1-.863-.31c-.125-.053-.261-.067-.303-.027-.177.178-2.29-1.244-2.598-1.749-.658-1.08.06-2.263 1.158-1.898.245.081.53.102.636.046.436-.233 1.474-.308 1.296-.093-.149.18-1.075.435-1.335.368-.173-.046-.85.405-.85.565 0 .268.918.439 1.067.198.033-.06.482-.178.993-.265.51-.087 1.056-.184 1.213-.215.157-.033.286-.004.286.06 0 .099-1.549.546-2.57.742-.438.084-.702.377-.51.568.097.098.494.04 1.386-.212 1.374-.384 2.33-.53 2.33-.358 0 .138-1.352.55-1.802.55-.657 0-1.272.356-1.116.646.175.328.478.447.664.26.08-.079.318-.139.532-.133.213.005.316.04.229.074-.212.085-.203.415.013.499.095.033.825-.108 1.62-.322 1.467-.393 2.275-.488 2.275-.267 0 .117-.173.162-1.378.36-.304.047-.545.149-.536.218.02.193 1.784.112 2.557-.117.37-.11.781-.2.912-.2.403 0 .117.239-.384.322-.7.116-1.171.322-1.171.513 0 .374-2.76.506-3.75.18zm-7.635.014c.04-.06.226-.143.418-.18.326-.06.333-.053.105.113-.27.197-.633.243-.523.066zm13.165-.389c0-.141.2-.205 1.2-.383 1.289-.23 1.552-.06.46.296-.686.225-1.66.276-1.66.087zm-39.213-.24c-.027-.027-.784-.102-1.68-.163-3.541-.241-3.754-.28-3.7-.657.033-.227.15-.297.612-.365.314-.047.733-.147.93-.224.511-.2 1.02-.19.659.013-.379.212-.39.235-.187.364.317.2 1.344.135 1.95-.125a5.717 5.717 0 0 1 1.06-.33l.482-.08-.494.31c-.87.546.28.622 1.33.087.612-.312.986-.34.75-.054-.608.734 1.101.384 3.107-.634.623-.317 1.162-.547 1.197-.512.097.097-.507.699-.7.699-.093 0-.17.06-.17.127 0 .29.407.154 2.848-.947.89-.402 1.212-.258.427.192l-.541.31.56.04c.408.027.656-.027.904-.213.188-.139.444-.272.57-.294.398-.073.343.234-.09.51-.23.146-.535.352-.677.458-.232.172-1.7.525-3.434.827-.353.06-.846.232-1.094.378-.395.233-.612.261-1.71.222a19.967 19.967 0 0 0-2.058.034c-.44.046-.823.053-.852.027zm12.547-.047c-.12-.12-.067-.19.242-.32.474-.199.62-.207.62-.039 0 .07-.11.127-.247.127-.136 0-.297.086-.355.191-.084.149-.142.158-.26.04zm4.104-.325c-.21-.033-.439-.101-.509-.156-.07-.054-.327-.143-.572-.194a4.547 4.547 0 0 1-.89-.315 21.19 21.19 0 0 0-.908-.423c-.933-.401-1.504-1.814-.733-1.814.304 0 .32.162.02.24-.176.046-.165.06.046.072.275.014.48-.268.45-.62-.006-.115.014-.13.054-.04.04.083.16.116.271.074.141-.054.174-.027.106.08-.075.12-.04.126.138.026.318-.178 2.75-.678 3.54-.726l.636-.04-.571.191a6.883 6.883 0 0 1-1.017.253 8.222 8.222 0 0 0-.89.184 4.08 4.08 0 0 1-.897.124c-.553 0-.955.265-.844.554.102.266.516.268.92.004.172-.113.427-.175.567-.139.14.034.254.027.254-.026 0-.117 1.691-.478 2.784-.596.848-.091 1.055.116.236.237-2.89.427-4.376.95-3.94 1.386.145.145 1.385-.075 1.937-.344.175-.086.632-.201 1.017-.258.764-.112.742-.107 1.017-.213.384-.148 1.141-.202 1.213-.087.06.1-.292.18-.6.137-.048-.006-.29.073-.537.175-.248.104-.62.188-.828.188-.207 0-.41.054-.45.12-.04.066-.388.183-.771.263-.71.147-1.027.433-.83.75.066.105.205.133.38.078.597-.19 1.426-.18 1.264.013-.282.34.587.44 1.513.171.654-.19.81-.088.437.286-.371.37-1.838.558-3.016.386zm6.577-.033c.285-.182 1.358-.508 1.679-.51.425-.002.046.217-.63.365-.35.076-.778.172-.953.213-.27.06-.284.053-.096-.068zm10.71-.365c.445-.199 1.159-.315 1.017-.167-.07.074-.384.167-.7.207-.387.047-.49.04-.317-.04zm10.995-.157a39.772 39.772 0 0 1-1.999-.435c-.715-.174-1.547-.317-1.85-.317-.302 0-.608-.06-.68-.132-.073-.072-.294-.16-.492-.196-.197-.034-.593-.17-.878-.296-1.007-.446-3.49-1.282-3.81-1.282-.26 0-2.335-1.023-2.798-1.379a8.078 8.078 0 0 0-.712-.41c-.315-.165-.663-.374-.774-.465-.273-.222-2.025-1.123-2.411-1.24-.403-.122-3.795-2.368-4.116-2.725-.136-.15-.55-.447-.922-.66-.729-.416-.84-.688-.43-1.058.276-.25.372-.215 1.105.412.87.744 2.374 1.804 2.56 1.804.17 0 1.282.715 1.437.924.04.054.47.296.954.538.484.242.966.497 1.07.567.866.576 4.493 2.42 4.763 2.42.114 0 .619.192 1.123.428.503.234 1.058.467 1.233.516.175.047.433.135.572.19 1.043.42 1.724.643 2.161.708.28.04.709.126.953.187.647.161 2.914.762 3.432.91.245.069 1.189.159 2.098.198 1.615.071 1.97.16 1.97.487 0 .344-2.218.535-3.56.307zm-9.592-.125c.04-.067.223-.12.405-.12.407 0 .341.09-.13.175-.2.034-.317.014-.275-.053zm-15.285-.071c.047-.047.268-.101.498-.126.306-.033.367-.014.228.077-.208.135-.856.178-.726.047zm-1.985-.311c.07-.07.35-.154.624-.188.561-.068.478-.006-.254.185-.327.085-.454.087-.37.003zm3.82.02c.157-.07.536-.156.845-.193.308-.04.667-.1.797-.14.13-.04.085.013-.1.123-.186.108-.672.228-1.081.266-.55.053-.67.033-.46-.054zm-21.638-.262c-.04-.07-.02-.127.047-.127.068 0 .228-.04.356-.088.205-.076.213-.06.06.128-.198.244-.346.272-.46.087zm1.97.077c0-.027.089-.084.198-.125.113-.04.164-.02.12.046-.076.121-.318.18-.318.076zm-15.728-.346a6.259 6.259 0 0 0-1.271-.375c-1.594-.275-3.21-.667-4.483-1.085-1.394-.46-1.56-.505-2.288-.642-1.559-.292-2.357-1.57-.98-1.57.214 0 .483-.086.598-.19.196-.178.873-.37 1.891-.534.748-.122.396.237-.463.471-1.04.285-1.3.492-.896.716.164.091.215.166.115.168-.099.003-.141.04-.095.09.047.047.214-.033.371-.18.371-.347 2.474-.881 2.676-.68.182.181.383.18.27-.001-.06-.097.007-.11.215-.04.166.054.43.09.588.079.65-.047.073.396-.712.546a1.29 1.29 0 0 0-.481.208c-.1.083-.337.157-.527.163-.46.02-.55.483-.129.672.225.1.424.072.864-.12.315-.139.744-.298.953-.356.21-.06.72-.222 1.132-.366.896-.313 1.086-.328.826-.068-.106.106-.701.353-1.322.547-1.203.378-1.424.564-.884.744.263.088.493.033 1.055-.241.843-.414 2.386-.903 2.602-.824.159.06.085.093-1.438.705-.989.396-1.254.725-.572.709.687-.014 1.123-.143 2.788-.804 1.355-.538 2.574-.776 1.568-.306-1.04.486-1.5.673-2.005.813-.862.24-1.09.372-.875.508.24.15 1.303.145 1.456-.006.116-.116.912-.43 2.637-1.04.407-.143.771-.23.81-.192.113.114-.75.585-1.231.672-.676.123-1.202.422-1.035.588.133.133.686.027 1.518-.3.458-.179.722-.15.548.06-.313.377.472.566 1.152.278.117-.047.289-.101.381-.115.093-.014.247-.074.342-.134.393-.245 1.601-.823 1.64-.785.04.04-.432.331-1.272.771-.483.253-.608.435-.318.461.317.027.67-.04.788-.152.067-.067.22-.117.342-.117.121 0 .382-.06.578-.136.197-.074.367-.118.377-.095.013.02.124-.053.254-.17.293-.264 1.189-.45 1.189-.248 0 .22.402.166.861-.114.229-.14.472-.253.54-.253.238 0 .122.214-.193.358-1.064.485.067.379 1.611-.15 1.143-.392 1.136-.391 1.04-.144-.039.108.001.197.1.207.095.006.301.026.459.046.157.014.286-.02.286-.084 0-.225 1.16-.631 1.351-.473.224.186 1.042.06 1.772-.272.658-.3.658-.3.899-.06.138.138.387.176.91.139.397-.027.822.003.945.068.333.178.276.489-.094.515-.174.013-.475.04-.667.06-.192.02-.664.067-1.049.1-2.388.22-3.674.437-3.944.662a.795.795 0 0 1-.445.16c-.554-.006-2.315.297-2.793.481-.28.109-.975.215-1.547.239-.57.02-1.343.135-1.716.25-1.06.323-1.246.34-2.133.19-1.292-.217-3.393-.194-4.137.047-.749.242-.63.247-1.301-.06zm-6.07-2.982c.274-.114.429-.246.364-.31-.14-.141-1.343.242-1.247.397.101.163.341.14.882-.086zm38.895 3.152c.07-.07.27-.169.445-.22.211-.06.275-.046.19.034-.07.07-.27.168-.444.22-.212.06-.276.046-.191-.034zm7.118-.823c-.28-.073-.537-.167-.571-.21-.033-.039-.38-.086-.768-.098-1.937-.06-4.391-1.886-4.13-3.075.1-.455.57-.697 1.02-.526.236.09.67.04 1.653-.194.733-.173 1.448-.315 1.588-.315.379 0 .309.239-.094.322-1.768.367-2.574.63-2.574.837 0 .257.363.407.713.295.227-.073.227-.066.02.106-.122.101-.223.277-.223.392 0 .139-.109.208-.327.208-.282 0-.302.027-.147.18.195.195 1.04.314 1.188.166.053-.053.21-.09.356-.087.253.004.254.013.033.18-.27.205.079.69.518.72.694.048 2.027-.2 2.439-.454.29-.179 1.024-.302 1.097-.183.04.06-.027.114-.14.114-.116 0-.362.082-.548.182a3.14 3.14 0 0 1-.687.257c-.192.04-.35.13-.35.197 0 .244.66.279 1.46.078.943-.237 1.083-.248 1.083-.09 0 .067-.235.156-.522.205-.48.081-.647.194-1.104.751-.184.225-.262.228-.98.04zm-3.47-1.52c-.081-.08-.19-.105-.242-.052-.053.053-.013.144.09.206.237.147.344.04.152-.152zm28.136 1.162c-.807-.14-1.856-1.644-1.147-1.644.142 0 .172-.083.113-.318-.126-.501.194-.345.533.26.076.137.31.306.52.375.21.07.39.185.401.255.084.536 1.672-.523 1.672-1.116 0-.453.31-.635.635-.373 1 .81-1.154 2.834-2.727 2.561zm-60.448-.695c0-.114.564-.288.69-.214.067.04.007.115-.127.167-.298.117-.564.139-.564.047zm58.016-.25c-.18-.18-.467-.32-.662-.32-.189 0-.687-.09-1.107-.199-.42-.108-.991-.243-1.27-.3-.677-.139-1.235-.337-2.2-.782-.44-.204-.847-.37-.905-.37-.06 0-.177-.086-.264-.19-.088-.105-.327-.191-.533-.191-.43 0-.794-.166-1.247-.567-.608-.538-1.485-.95-2.126-.999-.709-.053-.69-.047-1.783-.767-.437-.289-.794-.597-.794-.685 0-.088-.12-.16-.268-.16-.147 0-.733-.262-1.303-.583a24.074 24.074 0 0 0-1.903-.952c-.478-.203-1.042-.493-1.254-.644a2.5 2.5 0 0 0-.784-.356c-.32-.067-.411-.157-.463-.463-.12-.73-.993-1.499-1.881-1.66-.18-.033-.559-.215-.843-.405-.963-.646-1.239-.746-3.377-1.218a43.44 43.44 0 0 1-1.335-.316c-.833-.22-4.336-.103-5.02.168-.94.37-1.23.39-1.388.094-.167-.313.04-.874.358-.962 1.298-.362 5.17-.33 6.813.053.28.067.68.148.89.183.864.144 1.552.318 1.998.505.26.11.61.199.777.199.167 0 .45.114.627.254.178.14.657.413 1.066.609.715.34 1.644.937 2.11 1.354.122.109.269.199.325.199.342 0 .826.767.683 1.08-.183.4.134.625 1.613 1.147.533.188 1.055.415 1.16.503.105.09.391.264.636.388.245.123.52.33.611.46.091.13.31.236.485.236.176 0 .434.06.575.137.22.118.335.06.808-.421.562-.57 1.38-.932 1.772-.782.372.143.15.487-.439.685-.314.104-.713.32-.887.476-.174.157-.355.286-.402.286-.521 0 .389.773.988.84.148.013.561.177.918.358.356.18.744.328.861.328.119 0 .649.25 1.18.554 1.531.877 3.078 1.568 3.7 1.651.314.04.914.22 1.334.395.42.174.984.318 1.254.32.402.004.57.089.921.474.61.665.588.97-.026.356zm-57.057-.182c.067-.066.293-.155.503-.201l.381-.084-.364.202c-.404.224-.714.273-.519.083zm18.743-.113c-.287-.053-.489-.188-.57-.372-.069-.158-.193-.287-.277-.287-.622 0-.594-.575.033-.693.292-.053.483-.171.521-.32.033-.136.23-.269.463-.32.698-.15 1.871-.22 1.852-.108-.067.374.04.489.466.503.586.02.66.108.749.884l.073.645-.416.003c-.229.002-.874.034-1.433.078-.56.04-1.217.033-1.462-.014zm-2.415-.481c-1.565-.42-2.682-1.838-1.358-1.724.265.02.55-.013.634-.078.084-.067.405-.153.713-.192l.561-.071-.536.32c-.657.392-.65.694.02.86.261.066.475.187.475.27 0 .085.106.182.235.215.13.034.267.184.306.333.085.326-.053.335-1.05.067zm16.78-.047a.994.994 0 0 1 .45-.125c.144-.001.315-.054.382-.122.144-.144 1.941-.34 1.809-.198-.102.11-2.181.568-2.578.568-.211 0-.222-.02-.067-.123zm-10.443-.269c-.134-.084-.123-.11.047-.11.12-.001.484-.093.81-.203.437-.15.628-.164.734-.06.151.151-.13.427-.318.311-.053-.033-.32-.006-.597.054-.28.06-.58.066-.676.004zm-19.191-.49c-.199-.12-5.026-.34-6.467-.294l-1.398.046a5.972 5.972 0 0 1-1.462-.18c-1.561-.421-3.08-.706-4.068-.762-.722-.04-1.22-.15-1.716-.377a8.678 8.678 0 0 0-1.398-.479c-.384-.087-.785-.2-.89-.252-.105-.053-.534-.25-.953-.44-.42-.191-.877-.444-1.017-.563-.14-.118-.54-.355-.89-.525-1.558-.76-1.567-1.52-.02-1.595.746-.033 2.654-.423 3.737-.757.535-.165.81-.073.509.17-.087.07-.415.187-.73.26-2.228.522-2.67.605-2.67.504 0-.06-.06-.077-.135-.034-.215.133.258.568.617.568.457 0 1.954-.263 2.252-.395.59-.262 2.767-.614 2.568-.415-.108.107-1.823.53-3.077.759-1.742.318-1.844.438-.836.986.344.188.645.383.667.434.3.67 2.938.823 4.046.234.175-.093.804-.291 1.398-.44a18.76 18.76 0 0 0 1.78-.542c.384-.149.9-.297 1.144-.33.676-.09.167.227-.953.595-.49.16-1.148.389-1.462.508-.315.12-.93.326-1.367.46-.437.134-.794.277-.794.318 0 .192 1.143.328 1.487.176.519-.23 3.344-.864 3.435-.773.113.113.007.183-.348.231-.174.027-.373.078-.443.121a2.67 2.67 0 0 1-.531.164c-.417.09-.767.382-.588.491.159.096 1.338-.121 1.874-.345.266-.111.577-.202.69-.203.115 0 .37-.085.569-.19.476-.248 1.587-.575 1.918-.563.145.005-.109.148-.563.318-.455.17-.934.372-1.065.447-.18.104-2.336.799-2.689.866-.199.04-.02.22.313.317.298.086.445.066.613-.085.214-.191 1.569-.601 1.988-.601.237 0 .282.253.047.257-.282.005-.837.5-.565.503.127.002.195.06.152.13-.108.175.013.16.43-.053.195-.101.693-.27 1.107-.375 1.648-.42 3.208-1.025 3.395-1.317.12-.189.424-.21.53-.033.16.257-1.713 1.119-2.881 1.325-.378.067-.738.23-.738.332 0 .259.514.233 1.27-.06.446-.175.913-.318 1.036-.318s.27-.08.325-.175c.054-.096.302-.205.547-.242.245-.04.872-.217 1.394-.397 1.116-.388 1.098-.385.889-.134-.09.108-.24.167-.334.13-.093-.032-.17-.012-.17.048s-.471.262-1.048.445c-1.3.412-1.621.57-1.621.802 0 .26 1.473.097 2.617-.287.952-.321 1.435-.279.591.053-.284.112-.56.246-.613.298-.162.162.695.105 1.127-.076.225-.094.638-.212.918-.262.28-.053.87-.234 1.312-.409.441-.174.9-.295 1.016-.268.279.067-.397.373-1.47.674-.507.142-.795.29-.795.407 0 .242.59.157 1.526-.222.384-.155.842-.31 1.017-.343a2.85 2.85 0 0 0 .571-.18c.94-.44 1.96-.592 2.142-.32l.179.269.591-.286c.618-.3.966-.363.966-.176 0 .06-.343.235-.763.388-.42.153-.763.332-.763.398 0 .274 1.504.004 2.34-.42.545-.276 1.681-.34 1.356-.077-.16.13-.424.236-.585.236-.54 0-.692.12-.568.446.162.427-.033.532-1.208.638-.56.053-1.131.152-1.271.225-.14.074-.469.122-.73.107-.262-.013-.577.027-.701.093-.195.104-1.265.211-4.734.473-.385.027-.792-.004-.906-.072zm4.727-1.152c.202-.108.36-.504.202-.504-.172 0-.845.297-.845.372 0 .27.279.327.643.132zm1.472-.86c-.13-.026-.291.006-.359.074-.08.08.004.097.236.047.266-.054.299-.086.124-.124zm-17.568-.013c.04-.06-.013-.146-.116-.184-.198-.077-.368.082-.232.217.114.115.266.1.348-.033zm30.007 1.767a.273.273 0 0 1 .205-.128c.07 0 .092.06.047.128a.273.273 0 0 1-.205.127c-.07 0-.092-.06-.047-.127zm9.887.053c.176-.181 2.464-.518 2.6-.383.137.138-.047.207-.742.28l-1.322.138c-.35.033-.59.02-.536-.033zm22.315-.602c-1.301-.885-2.664-2.744-2.439-3.33.144-.375.468-.095.84.728.116.259.36.568.542.687.181.118.5.375.709.57.358.334 1.195.712 1.431.645.06-.02.188.033.284.115.096.08.476.182.844.227.608.074.67.11.67.4 0 .548-2.055.518-2.881-.04zm6.882.101c-.221-.266-.033-.408.21-.162.118.119.149.23.074.277-.069.04-.197-.006-.285-.116zm-36.224-.2c-.767-.092-2.74-.785-3.06-1.075-.11-.1-.249-.182-.307-.182-.06 0-.297-.146-.53-.325-1.254-.956-1.26-3.597-.007-2.922.308.166.565.207.926.148 1.112-.18 2.507-.241 2.424-.107-.047.073-.526.172-1.067.219-1.763.152-2.192.28-2.192.653 0 .172.158.191 1.113.135 1.065-.06 1.071.046.013.222-.445.074-.697.346-.545.59.097.158.658.147.757-.013a.25.25 0 0 1 .23-.107.81.81 0 0 0 .34-.053c.164-.067 1.04-.264 2.446-.557.253-.053.37-.013.43.138.125.33.187.311-1.985.589-1.182.15-1.653.353-1.653.71 0 .21-.088.21 1.597-.013.765-.1 1.603-.273 1.863-.381.26-.109.63-.198.822-.198.752 0-.027.345-1.295.572-1.392.249-1.716.367-1.716.625 0 .576.954.54 3.051-.117 1.254-.393 1.78-.493 1.78-.34 0 .188-1.295.607-2.28.737-1.074.141-.973.745.104.627a80.21 80.21 0 0 1 1.446-.136c.78-.06 1.853-.292 2.064-.443.265-.188 1.397-.508 1.803-.508.479 0 .568.19.136.29-1.157.266-1.888.536-2.358.87-.586.418-2.511.574-4.348.352zm-6.546-.368c-.226-.096-.215-.11.095-.118.192-.005.35.047.35.118 0 .15-.098.15-.445 0zm-4.132-.183c0-.26.078-.29 1.345-.515 1.145-.204 2.673-.517 3.2-.655.205-.053.286-.02.286.122 0 .109-.129.215-.286.238-.188.027-.286.128-.286.295 0 .2-.09.257-.413.267-.228.006-.413-.034-.413-.093 0-.06-.158-.084-.35-.054-1.851.26-2.415.36-2.604.462-.314.17-.478.149-.478-.06zm47.296-.25c-.082-.099-.181-.4-.221-.668-.097-.65-.865-2.173-1.336-2.649-.662-.668-1.376-1.5-1.376-1.602 0-.215.263-.241.548-.053.28.183.318.177.544-.075.578-.647 1.737-1.147 4.816-2.077.89-.27 1.488-.387 1.652-.327.142.053.475.077.74.053.34-.027.505.014.556.151.114.296-.02.35-.944.373-1.007.027-2.524.36-2.814.62-.112.1-.433.223-.713.273-1.858.33-3.367 1.513-2.669 2.092.105.087.19.214.19.282 0 .068.216.367.477.666.47.535.857 1.482.962 2.357.085.711-.095.965-.412.583zm-57.465-.168c0-.117 1.059-.67 1.282-.67.21 0 .003.24-.368.43-.508.258-.913.365-.913.24zm53.07-.034c.04-.07.104-.126.135-.126.033 0 .054.06.054.126 0 .07-.06.128-.135.128-.074 0-.1-.06-.054-.128zm-.89-.126c-.04-.07-.02-.128.054-.128s.135.06.135.128c0 .07-.027.126-.054.126-.033 0-.091-.06-.134-.126zm-59.243-.24c.153-.249 1.316-.747 1.915-.82l.636-.078-1.062.505c-1.001.477-1.646.647-1.489.393zm10.75-.141a.763.763 0 0 1 .317-.124c.07 0 .04.054-.067.124a.76.76 0 0 1-.317.123c-.07 0-.04-.053.067-.123zm47.56-.31c.027-.117.101-.209.17-.205.19.006.155.294-.046.36-.107.033-.155-.02-.127-.155zm-.91-.509c0-.302.155-.51.282-.382.1.1-.047.692-.17.692-.06 0-.112-.139-.112-.31zm-59.489.143c0-.106 1.414-.749 1.487-.676.137.137-.121.334-.61.466-.281.075-.593.17-.694.207-.1.04-.183.04-.183.002zm-7.795-.214c.082-.087.426-.172.763-.19.625-.033 2.187-.37 2.647-.573.14-.06.598-.207 1.017-.323.42-.117.862-.263.983-.325.288-.148.733-.146.733.004 0 .066-.187.153-.413.197a6.698 6.698 0 0 0-.858.251c-.245.094-.817.269-1.271.39-.455.12-1.035.294-1.29.388-.674.247-2.508.39-2.31.182zm26.577-.454c-.02-.02-.92-.067-2.003-.107-3.184-.118-4.344-.213-5.058-.414-.37-.104-.884-.177-1.144-.16-.694.039-.94.005-.86-.123.04-.06-.11-.177-.33-.254-.52-.182-.552-.177-.357.06.145.175.046.189-.906.126-.588-.04-2.023-.098-3.19-.132-1.875-.054-2.225-.1-3.044-.396-.76-.274-1.063-.32-1.694-.261-1.067.1-2.123-.21-4.412-1.294-.466-.22-1.011-.401-1.212-.401-.416 0-1.567-.376-2.552-.833-.37-.171-.726-.311-.794-.311-.067 0-.379-.197-.692-.435-.314-.24-.912-.609-1.329-.821l-.988-.504a9.08 9.08 0 0 0-.548-.256c-.736-.316-1.589-.877-1.589-1.045 0-.21-.337-.34-.93-.359-.232-.006-.5-.084-.594-.171-.298-.276-.744-.603-1.383-1.013a7.057 7.057 0 0 1-1.017-.803c-.219-.223-.57-.494-.779-.601-.912-.469-1.392-1.63-.714-1.725.517-.073 1.194.1 1.058.273a.678.678 0 0 0-.115.375c.004.24-.091.24 1.836.02.538-.06.795-.046.795.047 0 .076-.215.138-.476.138-1.041.003-1.564.34-.998.643.248.133.576.14 1.623.027.777-.081 1.358-.091 1.426-.027.133.132-.19.22-1.184.317-.82.081-.89.13-.6.419.188.186.45.215 1.772.192 1.584-.027 1.82.128.384.252-1.03.088-1.15.175-.712.513.195.15.41.346.481.434.101.129.203.12.508-.046.21-.114.768-.245 1.24-.29.906-.09 1.192.046.381.183-.728.121-.78.153-.708.425.095.365.383.43 1.247.283 1.448-.247 2.495-.347 2.559-.243.099.16-.437.317-1.423.416-1.168.117-1.359.233-.832.506.28.144.545.182.859.123l.455-.085-.21.32c-.306.468.257 1.186.651.83.244-.221 1.36-.432 2.836-.536.455-.033.964-.099 1.133-.149.212-.06.278-.046.216.054-.117.19-.767.345-2.258.54-1.326.174-1.451.3-.656.66.36.162.52.177.727.066.146-.079.467-.186.71-.239.246-.053.818-.177 1.272-.278.454-.1.912-.185 1.017-.188.105-.003.462-.047.794-.098.403-.06.604-.047.604.047 0 .075-.271.173-.604.218-2.3.315-3.327.608-3.334.95-.004.249.783.48 1.23.361l.992-.26c.28-.073.882-.269 1.338-.435.872-.317 1.333-.377 1.45-.187.04.06-.515.296-1.231.519-1.398.435-1.875.63-1.875.768 0 .115 2.009-.234 2.327-.405a1.79 1.79 0 0 1 .517-.164c.15-.02.528-.071.843-.12.372-.06.505-.046.381.034-.22.137-1.702.528-2.001.528-.276 0-1.177.407-1.177.53 0 .288.902.48 1.437.305a18.65 18.65 0 0 1 1.233-.338c.384-.09.762-.211.84-.268.076-.06.277-.094.444-.084.168.013.534-.027.813-.08 1.043-.2.236.158-.973.432-1.463.33-1.885.51-1.886.798 0 .158.075.197.285.148.96-.225 1.39-.283 1.57-.214.112.04.252 0 .31-.096.06-.095.148-.134.197-.085.046.047.02.168-.06.266-.206.248-.04.63.223.516.113-.047.491-.135.841-.19.35-.053 1.18-.251 1.843-.437 1.98-.554 3.04-.78 2.86-.61-.148.142-2.264.827-2.43.788-.156-.04-.83.134-1.095.277-.122.067-.372.12-.556.12-.284 0-.311.026-.177.19.202.243 1.486.26 1.77.027.24-.2 1.517-.528 1.627-.418.11.109-.053.244-.315.264-.37.026-1.052.375-1.006.511.053.162 1.442.184 1.864.027.631-.23 2.62-.704 3.242-.772l.636-.07-.89.305c-.49.168-.994.309-1.12.312-.38.013-1.488.409-1.424.512.033.053.39.161.793.242.404.08.963.227 1.242.327.39.139.538.146.636.027.07-.084.357-.171.636-.195.28-.027.595-.114.7-.198.31-.251.815-.431 1.476-.527.341-.047.706-.134.811-.187.105-.053.449-.13.763-.173l.572-.077-.509.244c-.28.134-.69.248-.914.253-.223.005-.44.067-.484.137-.04.07-.212.128-.375.128s-.429.107-.59.238l-.295.238.548.053c.3.027.756-.02 1.011-.11a4.228 4.228 0 0 1 1.004-.183c.297-.014.54-.067.54-.115 0-.053.215-.131.477-.179a8.83 8.83 0 0 0 1.021-.268c.653-.218 1.09-.249.79-.053-.198.127-1.451.543-2.074.689-.695.162-.303.393.619.365.574-.02.907.026.97.126.12.194 1.767.193 2.392-.003.963-.3 1.205-.323 1.021-.102-.313.377.818.267 2.475-.243.35-.107.69-.195.756-.196.199-.003-.093.222-.375.287-.204.047-.176.078.143.152.425.1.442.835.027 1.103-.146.094-2.968.126-3.06.033zm-27.807-.149c0-.129.424-.263 1.907-.604.524-.121 1.221-.3 1.549-.396.328-.097.71-.176.85-.176s.29-.06.333-.127c.04-.07.222-.127.397-.127.18 0 .283.054.24.127-.04.07-.216.127-.382.127-.167 0-.333.047-.37.11-.04.06-.342.181-.676.27-.333.087-1.036.289-1.56.447-1.131.343-2.288.52-2.288.35zm67.823-.02c-.047-.075-.033-.23.033-.343.104-.186.123-.184.201.02.1.26-.1.536-.232.323zm-30.187-.573c.11-.108 1.388-.29 1.388-.198 0 .053-.09.13-.2.174-.224.085-1.271.107-1.187.026zm25.269-.422c-1.996-1.192-3.015-4.542-2.02-6.644.609-1.287 1.254-2.354 1.449-2.393.466-.092.316.657-.279 1.397-.21.261-.558 1.667-.56 2.267-.006 1.937.271 3.487.683 3.785.122.09.493.421.824.737.587.563 1.394.717 1.95.374.054-.033.174.027.264.133.53.639-1.35.918-2.312.344zm-31.453-.02c.04-.06.24-.137.45-.168.304-.047.352-.02.24.113-.154.184-.802.236-.69.053zm35.88.033c-.133-.133-.106-.782.033-.87.17-.106.306.506.167.755-.06.112-.154.164-.203.115zm-39.24-.103c0-.104.897-.487.97-.414.04.04-.103.16-.316.27-.38.198-.654.257-.654.144zm-2.796-.253c.315-.088.629-.126.699-.086.143.083-.47.238-.953.242-.198.002-.103-.06.254-.155zm-8.459-.207c-.08-.13.04-.195.546-.303.227-.047.413-.04.413.02 0 .146-.883.41-.96.286zm9.92-.118c.353-.152.603-.152.509 0-.04.07-.233.123-.421.118-.306-.006-.315-.02-.088-.118zm-31.163-.326c-.122-.316.096-.426.977-.495.82-.066 1.218-.134 2.793-.497.982-.226 1.306-.067.425.213-1.049.33-2.45.627-2.63.559-.093-.034-.414.046-.713.176-.657.295-.754.3-.853.047zm70.887.067c0-.074.06-.1.127-.054.07.04.127.104.127.135 0 .033-.06.053-.127.053a.131.131 0 0 1-.127-.134zm-46.905-.297c0-.027.088-.084.197-.126.113-.047.164-.02.12.047-.075.12-.317.179-.317.075zm16.143-.096c-2.046-.155-2.943-.235-4.105-.369-.822-.094-1.252-.088-1.621.02-.351.106-.59.112-.789.02a.853.853 0 0 0-.54-.04c-.326.117-1.921.027-2.405-.132-.205-.068-.777-.16-1.272-.205-.494-.046-1.185-.183-1.534-.31-.35-.125-.807-.206-1.017-.178-1.464.194-2.001.195-2.816.003-1.385-.326-1.838-.423-2.65-.563-1.224-.21-2.207-.27-2.288-.14-.047.073-.346.014-.737-.142a8.751 8.751 0 0 0-1.17-.372c-.28-.06-.794-.171-1.144-.25a7.996 7.996 0 0 0-1.436-.147c-.865-.003-1.319-.257-1.484-.833-.118-.408.398-.503 1.237-.226.367.121.81.22.984.22.175 0 .747.113 1.271.251.525.138 1.297.297 1.716.352 2.134.284 2.96.414 3.322.524.453.138 1.858.296 2.335.264.92-.06 1.968.005 3.534.229.958.136 2.313.28 3.012.32.7.04 1.672.127 2.161.193.49.066 1.319.146 1.843.18.525.034 1.497.128 2.161.21 1.426.173 5.935.22 8.453.087 2.082-.11 2.525-.034 2.582.44.06.499.106.492-3.654.493-1.079 0-2.017.033-2.085.077-.187.115-.54.118-1.864.02zm-15.635-1.63c0-.068-.086-.09-.19-.047-.106.04-.192.096-.192.124 0 .027.086.047.191.047.105 0 .191-.054.191-.124zm-5.72 1.14c0-.07.06-.127.127-.127.07 0 .127.06.127.127a.13.13 0 0 1-.127.127.129.129 0 0 1-.127-.127zm.519-.091c-.185-.073 1.144-.54 1.546-.543.447-.004.205.206-.481.417-.75.231-.787.236-1.065.126zm-19.84-.23c0-.103.07-.19.158-.195a7.793 7.793 0 0 0 1.814-.306c.85-.258 1.932-.268 1.46-.013-.175.094-.565.205-.866.246-.302.04-.595.104-.653.14-.06.033-.383.074-.723.085-.34.013-.747.068-.904.125-.215.08-.287.06-.287-.082zm14.618-.159c0-.053.6-.244 1.334-.423 1.585-.387 1.766-.267.298.195-1.044.328-1.632.411-1.632.228zm61.84-.53c-.286-.206-.758-.402-1.08-.448-2.08-.298-4.322-1.384-4.322-2.093 0-.335.003-.335.96.122 1.797.857 2.97 1.136 3.205.76.101-.161.297-.255.534-.255.281 0 .464-.115.73-.461.195-.255.484-.58.641-.722.158-.144.286-.311.286-.373 0-.06.14-.419.313-.794.398-.872.412-2.762.026-3.496-.78-1.484-.882-2.296-.67-5.353.087-1.245.071-1.538-.1-1.87-.526-1.018-.16-2.546.47-1.954.364.341.419.343 1.077.027.29-.14.582-.255.65-.255.068 0 .2-.072.293-.16.092-.088.425-.36.74-.603.315-.244.591-.488.615-.544.027-.053.176-.257.337-.449.447-.531.855-1.385.877-1.838.027-.494.386-.636.501-.196.06.22.112.255.225.142.156-.156.112-.317-.2-.74-.17-.234-.16-.316.11-.849.377-.743.491-1.251.484-2.134-.005-.619.103-.882.367-.89.404-.012.392 2.354-.013 2.936-.287.409-.32.59-.194 1.04.118.418-.273 1.407-1.007 2.555-.825 1.29-1.368 1.734-3.436 2.812-1.211.632-1.143.478-1.15 2.58-.005 1.97-.085 2.779-.317 3.213-.197.367-.073.6.347.647.365.04.702.708 1.176 2.33.227.771.24 2.588.02 2.724-.377.233-.046.552.465.451.671-.133 1.966.224 2.714.748.45.315.685.253.951-.248.266-.5 2.424-2.501 3.036-2.816a3.84 3.84 0 0 0 .766-.573c.432-.425 1.888-1.494 2.036-1.494.053 0 .446-.305.873-.678a33.44 33.44 0 0 1 1.785-1.42 26.644 26.644 0 0 0 1.7-1.369c.678-.614 1.39-1.018 1.582-.9.053.034.188-.026.298-.139.215-.215.433-.159.433.112 0 .207-1.229 1.343-1.452 1.343-.089 0-.299.12-.467.266a4.01 4.01 0 0 1-.623.436c-.175.093-.431.342-.569.553-.138.211-.457.477-.71.591-.252.114-.834.57-1.292 1.013-.46.443-1.083.966-1.388 1.162-.304.196-.868.593-1.252.882-.385.29-.814.564-.954.61-.14.046-.79.6-1.446 1.23-.656.631-1.371 1.238-1.59 1.348-.762.385-.968.67-.968 1.337 0 .864-.355.855-.736-.02-.363-.83-1.55-1.5-2.378-1.343-.14.027-.525.053-.856.06-.547.006-.609.04-.688.36a3.793 3.793 0 0 1-.32.766c-.128.23-.234.554-.234.722a2.2 2.2 0 0 1-.145.664c-.08.196-.152.557-.16.8-.019.573-.25.608-.902.137zm.509-1.087c0-.391-.622-.354-.678.04-.033.256.005.29.318.254.26-.027.36-.111.36-.296zm1.561-15.153.473-.217-.496-.047c-.475-.046-.781.139-.633.379.086.138.115.132.656-.116zm1.125-.763c-.105-.104-.461.06-.461.218 0 .094.081.092.265-.006.146-.078.234-.173.196-.211zm.881-.517c-.04-.04-.176.027-.297.152-.21.22-.206.223.077.078.164-.084.263-.188.22-.23zm.564-.473c.164-.175.246-.317.181-.314-.109.004-.632.632-.527.632.027 0 .182-.143.346-.318zM14.97 102.32c-.047-.114-.04-.245.006-.291.108-.108.527.148.493.3-.046.207-.419.2-.5-.005zm-68.252-.128c.136-.107.393-.203.572-.213.497-.027.567-.047.727-.144.082-.053.597-.124 1.144-.163.732-.054.94-.033.784.066-.116.075-.46.141-.762.147a5.198 5.198 0 0 0-1.123.18c-1.02.3-1.636.36-1.342.128zm-.367-.819c-.13-.209.033-.39.349-.38.154.004.709-.047 1.233-.113.544-.069 1.005-.074 1.074-.013.067.06.096.114.067.118-.457.054-2.159.37-2.363.435-.155.054-.308.027-.357-.047zm68.698-.34c0-.223.274-.185.353.054.026.083-.04.151-.151.151a.202.202 0 0 1-.202-.201zm18.813-.834c-.454-.054-.974-.067-1.155-.033-.481.09-.71-.228-.413-.575.125-.145.288-.264.364-.264.075 0 .204-.067.285-.149.14-.14 2.23-.868 2.491-.868.067 0 .425-.15.799-.332 1.075-.527 3.342-.88 3.544-.552.199.322-.197.468-1.156.425-.845-.04-1.02-.004-1.458.272-.275.173-.553.315-.618.315-.067 0-.139.06-.164.133-.027.073-.471.22-.993.329-1.51.312-1.776.559-.89.824 1.017.305.601.615-.636.474zm-46.714-.25c-.517-.162-2.17-.366-3.55-.438a38.075 38.075 0 0 1-2.16-.186c-.565-.07-1.62-.184-2.345-.254-.724-.07-1.366-.157-1.425-.194-.06-.04-.897-.094-1.86-.129-.964-.033-2.102-.149-2.528-.256-.704-.175-2.94-.27-3.928-.168-.361.04-1.783-.092-2.128-.194l-1.09-.333c-.75-.23-1.013-.26-1.355-.156-.422.13-1.117.013-2.008-.332-.31-.12-.601-.564-.601-.915 0-.316.587-.384 1.529-.177.522.116 1.204.263 1.516.327.312.066.624.174.693.243.15.15.499.17.408.02-.034-.06.29-.06.723-.014.433.054 1.12.125 1.526.164.406.04.793.106.86.147.143.089 2.786.317 4.314.372.939.033 1.708.168 2.413.419.105.04.31.053.457.04.26-.027 1.235.086 3.293.376.559.078 1.604.136 2.322.128.718-.006 1.418.047 1.555.118.136.073.859.213 1.604.311.746.099 1.39.226 1.433.283.04.06.406.106.807.108.784.004 1.213.253 1.071.623-.087.228-.908.26-1.547.06zm-10.932-1.51c-.04-.07-.178-.127-.3-.127a.573.573 0 0 1-.354-.133c-.092-.092-.187-.067-.311.087-.156.191-.154.211.013.15.105-.04.305-.026.445.034.363.143.6.14.508-.006zm38.77 1.398c-.138-.222.066-.41.265-.245.099.082.18.199.18.26 0 .154-.349.142-.445-.013zm33.518-.312c-.62-.56-.753-.99-.448-1.45.156-.234.214-.533.19-.991-.02-.361.027-.693.1-.739.073-.047.133-.173.133-.284 0-.23.845-1.308 1.026-1.308.179 0 .142.212-.074.427-.277.278-.693 1.304-.746 1.842-.027.255-.111.739-.192 1.076-.242 1.013.45 1.657 1.642 1.528.6-.066.132.144-.597.268-.486.082-.57.053-1.036-.368zM-48 99.076c.105-.069.534-.124.953-.124.54 0 .707.033.572.123-.105.068-.534.124-.953.124-.54 0-.707-.033-.572-.124zm5.656.005a4.08 4.08 0 0 1-.635-.28 3.712 3.712 0 0 0-.827-.3c-.244-.054-.976-.321-1.625-.597-.88-.374-1.276-.482-1.555-.42-.3.066-.433.02-.677-.245-.166-.18-.36-.328-.43-.328s-.264-.103-.43-.23c-.167-.127-.585-.336-.928-.464a6.685 6.685 0 0 1-1.144-.58c-.286-.19-.662-.39-.837-.442-.175-.053-.564-.26-.865-.46-.3-.202-.618-.366-.706-.366-.087 0-.43-.172-.761-.382a10.94 10.94 0 0 0-1.01-.57c-.653-.3-1.182-.63-1.571-.982l-1.288-1.161c-.51-.46-1-.807-1.09-.772-.572.22-1.059-.871-.606-1.358.375-.403 1.882.453 1.6.908-.039.067 0 .122.092.122s.338.16.548.355c.21.195.61.492.89.662.28.169.577.376.663.459.085.082.514.358.953.611.44.255 1.256.746 1.816 1.093.559.347 1.088.63 1.176.631.087.001.158.047.158.1 0 .12-.04.097 2.868 1.546 1.324.66 2.446 1.19 2.493 1.18.047-.014.42.096.826.238.408.142.855.288.995.325.14.04.455.17.7.297.435.226 1.3.505 2.387.772.6.147.616.44.013.31-.203-.048-.369-.028-.369.032 0 .182-.544.377-.826.294zm-3.686-.136c.04-.07.26-.126.484-.126.31.002.36.033.215.126-.252.162-.8.162-.699 0zm61.358-.034c-.119-.142-.125-.223-.02-.286.188-.117.284-.006.232.265-.04.199-.06.2-.208.02zm7.601-.889c0-.354-.047-.415-.327-.432-.75-.04-1.297-1.133-.562-1.119.175.003.479.047.677.1.32.083.374.053.504-.292.157-.416.57-.637.725-.386.053.084-.067.533-.264.998-.197.465-.39 1.003-.43 1.195-.101.483-.323.44-.323-.067zm1.271.312c0-.225.327-.786.458-.787.102-.001.102.12 0 .443-.12.384-.458.638-.458.343zm-8.39-.78c0-.067.061-.155.128-.198.07-.04.128.013.128.119 0 .109-.06.198-.128.198a.123.123 0 0 1-.127-.12zm-65.463-.135c.247-.16.382-.16.382 0 0 .07-.129.126-.286.125-.232-.002-.25-.026-.096-.125zm74.362-.699c0-.902-.259-1.573-.779-2.018-.534-.457-.6-.588-.295-.588.716 0 1.767 2.638 1.192 2.993-.067.04-.118-.134-.118-.387zm-8.561-.25c-.081-.212.108-.376.299-.258.19.117.153.445-.047.445-.097 0-.21-.084-.249-.187zm-56.712-.652c-.28-.108-.766-.28-1.08-.38-.315-.101-1.288-.548-2.162-.994-.874-.445-1.833-.882-2.13-.971-.298-.09-.606-.24-.683-.333a.575.575 0 0 0-.393-.17c-.139 0-.746-.253-1.35-.562-2.611-1.337-2.784-1.379-2.372-.583.111.214.14.399.072.441-.142.088-.74-.529-.852-.878-.09-.285-.544-.696-.776-.702-.252-.006-.185.569.095.822.14.127.254.307.254.401 0 .293-.381.187-.506-.14-.067-.171-.333-.643-.596-1.049a29.25 29.25 0 0 1-.482-.756c-.003-.014-.142-.04-.31-.067-.412-.06-.471.191-.121.517.203.189.246.305.15.402-.096.097-.298-.097-.696-.668-.49-.704-.865-1.018-1.73-1.451-.088-.047-.24-.013-.336.067-.139.115-.3.027-.777-.431-.845-.81-1.162-.726-.506.134.314.412.404.688.225.688-.118 0-1.051-1.017-1.051-1.146 0-.053-.22-.317-.488-.587-1.03-1.039-1.202-1.827-.4-1.827.506 0 .505-.367-.002-1.442-.528-1.118-.417-1.735.312-1.735.328 0 1.595.75 1.595.944 0 .203 1.106 1.238 2.39 2.237l1.296 1.009c.175.136.484.393.687.57.203.178.436.324.516.324.524 0 .868.835.497 1.206-.23.229-.473.06-.8-.55-.126-.235-.222-.27-.573-.204-.375.07-.453.033-.712-.345-.695-1.011-1.214-1.396-1.06-.787.111.446-.136.299-.418-.25-.398-.768-.975-1.353-1.338-1.355-.218-.002-.367-.087-.415-.236-.11-.344-.664-.824-.832-.72-.08.047-.113.174-.074.277.04.103.003.311-.08.464-.367.666-.215.934 1.126 1.992.738.581 1.067.763 1.386.763.25 0 .561.119.777.298.198.163.703.483 1.122.71.42.228.853.494.963.593.11.098.296.18.411.18.19 0 .934.321 2.823 1.22.35.168.845.304 1.1.304.315 0 .667.138 1.11.437.357.24.767.474.913.52.54.171 2.76 1.38 3.13 1.705.085.074.199.135.254.135.053 0 .38.143.724.317a9.29 9.29 0 0 0 1.398.533c.85.24 1.896.871 1.82 1.101-.073.223-.48.225-1.045.006zm56.658-1.344c-.196-.197-.2-.633-.006-1.056.18-.397.364-.358.6.123.306.63-.16 1.365-.593.933zm41.408-.234c-.225-.14.569-.629.884-.546.145.04.25-.027.29-.173.088-.326 1.366-.963 1.825-.91.545.06.59.486.054.486-.232 0-.732.194-1.185.461-.973.572-1.647.818-1.867.682zm-115.613-.643c-.132-.213-.02-.253.944-.333.634-.054.904-.033.904.068 0 .079-.128.135-.286.125-.157-.013-.515.047-.794.128-.626.18-.664.181-.768.013zm73.9-.599c-.42-.053-.9-1.289-1.116-2.878-.076-.554-.197-1.078-.27-1.165-.279-.337-.118-2.187.211-2.428.376-.275.407-.21.414.85.004.706.067 1.105.204 1.3.109.155.198.484.199.73.002.624.28 1.598.679 2.383.492.969.404 1.3-.32 1.208zm5.444-.387c-.236-.261-.27-.48-.09-.59.143-.088.642.42.642.656 0 .241-.307.204-.552-.067zm.17-1.548c0-.07.06-.126.128-.126.07 0 .126.06.126.126a.13.13 0 0 1-.126.128.129.129 0 0 1-.127-.128zm-.38-1.27c0-.14.053-.255.11-.255.167 0 .407.329.311.425-.174.174-.422.073-.422-.17zm37.752-.007c0-.196 2.83-2.915 3.036-2.917.096 0-.529.686-1.389 1.525-1.637 1.597-1.647 1.605-1.647 1.392zm-115.003-.153c-.24-.31-.289-.596-.088-.519.171.067.435.432.435.606 0 .13-.221.075-.347-.087zm109.156.02c0-.205 1.265-1.435 1.37-1.331.039.04-.04.181-.184.313a6.429 6.429 0 0 0-.5.539c-.385.475-.686.685-.686.48zm1.27.027c0-.154 1.649-1.668 1.815-1.668.074 0-.013.157-.198.35-1.156 1.211-1.384 1.43-1.494 1.43-.067 0-.122-.054-.122-.112zm1.526-.282c0-.145 2.32-2.53 2.461-2.53.185 0 .034.191-.84 1.08-.507.513-1.024 1.08-1.15 1.261-.236.339-.471.433-.471.19zm9.915-.046c0-.383 1.323-1.361 1.71-1.264.17.04.344-.007.444-.13.18-.217.452-.276.325-.071-.165.267.684.128.873-.143.104-.148.364-.29.577-.315.83-.096 1.624-.628 2.236-1.497.637-.905.713-.956.64-.429-.075.534.033.6.376.223.127-.14.361-.254.52-.254.16 0 .33-.06.378-.14.046-.077.282-.222.521-.321.24-.1.467-.266.507-.368.04-.102.124-.154.188-.114.067.04.109.027.099-.033-.082-.47.332-1.105.524-.803.1.157.2.107.575-.287.273-.286.573-.476.753-.476.282 0 1.592-1.173 1.592-1.425 0-.06.3-.239.667-.404.71-.319 1.283-.848 1.425-1.318.107-.355.568-.633.7-.421.127.206.513.027.513-.242 0-.179.828-1.077 2.288-2.483.346-.332.836-1.233 1.14-2.097.315-.896.36-.956.742-.993.498-.047.527.167.152 1.12-.14.355-.254.811-.254 1.015 0 .42-.212.673-1.43 1.715-.472.404-.858.797-.858.874 0 .141-.801.918-1.483 1.438-.198.152-.49.38-.647.508-.158.129-.47.377-.694.552-.225.174-.725.646-1.112 1.048-.387.402-.889.83-1.114.953-.224.123-.724.523-1.11.89-.641.612-1.966 1.558-2.18 1.558-.047 0-.282.146-.517.325-.235.179-.83.536-1.325.795-1.772.925-2.133 1.123-2.304 1.265-1.045.867-3.604 1.708-3.925 1.29l-.236-.307-.003.347c-.002.267-.076.362-.321.413-.175.033-.461.095-.636.132-.229.047-.317.013-.317-.127zm-6.866-.696c.174-.133.341-.218.372-.187.072.072-.393.426-.56.428-.07.001.013-.108.188-.241zm2.417.121c0-.275.737-1.21 1.639-2.078.497-.478.903-.921.903-.985 0-.22-.305-.113-.677.234-.25.235-.392.297-.43.191-.158-.435-1.645.258-1.924.897-.076.173-.569.597-.694.597-.067 0-.047-.088.047-.196.256-.31-.004-.455-.549-.304-.26.072-.473.185-.473.252 0 .066-.08.12-.179.12-.143 0-.153-.082-.046-.42.13-.427.918-.98 1.394-.979.116 0 .374-.077.571-.172.199-.096.675-.315 1.06-.49a77.166 77.166 0 0 0 1.4-.653c.385-.185.777-.337.871-.337.094 0 .38-.164.634-.364.255-.2 1.064-.662 1.798-1.025.734-.364 1.42-.715 1.525-.78a28.4 28.4 0 0 1 .89-.502l1.525-.84c.455-.25 1.256-.732 1.78-1.07.524-.338 1.106-.652 1.294-.698.187-.047.438-.192.56-.325.12-.134.32-.243.446-.243.125 0 .262-.054.304-.124.04-.068.403-.337.802-.597.399-.26.982-.721 1.297-1.025.315-.304.858-.694 1.208-.865.426-.209.693-.44.807-.697.093-.213.432-.585.753-.83.32-.244.68-.607.802-.806.12-.199.358-.396.527-.438.37-.093 2.03-1.808 3.698-3.82.266-.322.563-.586.66-.586.364 0 .321.285-.127.832-.255.311-.417.567-.36.568.06.001.02.06-.087.127-.15.1-.156.147-.026.23.175.113.102.31-.417 1.102-.314.481-.465.588-.635.446-.17-.14-1.07.498-1.772 1.256-.284.307-.874.924-1.311 1.371-.437.447-.795.856-.795.909 0 .053-.168.194-.373.316-.206.121-.413.348-.46.504a1.766 1.766 0 0 1-.307.538 5.85 5.85 0 0 0-.517.794c-.285.52-.504.694-.504.401 0-.076.121-.309.269-.515.671-.943-.62-.374-1.557.686-.602.681-.684.736-.743.493l-.067-.274-.388.277a3.975 3.975 0 0 0-.74.764c-.37.515-.656.65-.53.25.072-.225.047-.223-.468.033-.556.277-1.242.885-1.242 1.102 0 .067-.04.123-.096.124-.053.002-.26.226-.461.498-.202.272-.473.523-.604.557-.254.067-.222-.06.12-.454.345-.403-.054-.233-.522.222-.515.5-.576.52-.775.261-.133-.174-.915.23-1.564.809a.37.37 0 0 1-.337.067c-.102-.04-.222-.007-.268.066-.054.081.033.136.201.136.233 0 .094.188-.755 1.017-.573.56-1.083 1.016-1.136 1.015-.053 0-.04-.046.033-.095.07-.053.374-.394.675-.76.601-.733.463-.905-.23-.287-.511.457-.658.417-.34-.093.111-.178-.69.214-.827.404-.154.215.04.347.387.26l.335-.083-.308.328c-.37.394-.518.419-.428.074.054-.195.004-.254-.203-.254-.148 0-.27.04-.272.095-.001.053-.583.696-1.292 1.43-.709.734-1.383 1.49-1.499 1.68-.25.412-.892.941-.892.736zm23.516-17.923a.13.13 0 0 0-.127-.127.13.13 0 0 0-.128.127c0 .07.06.127.128.127a.13.13 0 0 0 .127-.127zM61.953 88.6c0-.098.09-.212.2-.254.38-.146.474-.077.245.176-.27.297-.445.328-.445.078zm3.535-.04c.092-.04.202-.033.244.006.04.04-.034.072-.167.067-.148-.006-.178-.033-.077-.077zm-19.41-.283c-.303-.191-.067-.723.397-.898.228-.086.53-.204.67-.264.86-.363 1.655-.63 2.605-.873a42.034 42.034 0 0 0 1.652-.456 9.816 9.816 0 0 1 1.08-.264c.708-.118 3.812-1.55 4.01-1.849.04-.06.295-.183.572-.281.277-.097 1.063-.442 1.746-.766.684-.324 1.274-.589 1.312-.589.153 0 3.56-1.554 3.737-1.705.105-.09.477-.289.827-.442.35-.154.797-.363.995-.465.198-.101.484-.184.636-.184.297 0 1.097-.47 2.433-1.43.462-.331.996-.683 1.186-.781.19-.098.75-.513 1.246-.922a33.716 33.716 0 0 1 1.713-1.316c.447-.315 1.047-.8 1.334-1.08 1.565-1.53 2.204-2.091 2.654-2.333.57-.305 2.07-1.718 2.66-2.504 1.173-1.562 1.564-2.045 1.787-2.21.3-.223.445-.388 1.096-1.247.364-.48.592-.668.812-.668.335 0 .463-.106 1.165-.962.523-.638 1.002-.74 1.002-.213 0 .353-2.85 3.386-3.666 3.902-.304.193-.649.512-.766.711-.51.862-4.864 4.986-5.726 5.423a5.97 5.97 0 0 0-1.163.821c-.286.273-.694.622-.906.777a63.14 63.14 0 0 0-1.58 1.245c-.655.529-1.491 1.124-1.857 1.322-.366.197-.824.52-1.017.718-.194.197-.443.36-.555.362-.111.002-.303.115-.427.251-.26.288-1.564 1.084-1.997 1.22-.163.053-.41.17-.547.265-.138.096-.328.174-.422.174-.094 0-.353.137-.576.305-.367.277-.755.5-2.489 1.429-.307.165-.64.3-.74.3-.098 0-.367.142-.596.317-.27.206-.581.318-.885.318-.268 0-.792.163-1.224.381-.416.21-.843.382-.95.382-.106 0-.194.074-.194.164 0 .201-1.518 1.107-1.856 1.107-.315 0-2.154.798-2.445 1.062-.123.11-.535.265-.916.341-.964.194-2.368.588-3.9 1.092-1.366.45-1.64.495-1.927.313zm13.205-.07c0-.034.13-.128.287-.212.26-.138.27-.133.111.06-.162.197-.398.287-.398.153zm-38.18-.498c-.114-.27-.208-.628-.208-.794 0-.166-.053-.303-.118-.303-.135 0-.518-.718-.518-.972 0-.095.086-.172.191-.172.105 0 .19.047.19.097 0 .053.155.263.344.466.269.29.354.527.395 1.1.071.98-.02 1.175-.275.578zm41.74.215c0-.047.457-.537 1.017-1.088.559-.55 1.016-1.048 1.016-1.107 0-.261.391-.216.687.08.398.397.763.339 1.405-.224.304-.267.52-.365.69-.311.16.053.307-.003.417-.152.235-.318 1.191-1.051 1.372-1.051.08 0 .12-.047.088-.097-.034-.053.013-.197.104-.32.154-.212.167-.21.23.032.125.475.935.114 1.695-.755.235-.27.303-.29.48-.144.112.094.205.121.205.06 0-.06.252-.214.56-.34.489-.202 1.153-.724.918-.724-.046 0 .007-.144.125-.32.174-.266.278-.308.608-.246.359.068.474 0 1.16-.697.763-.774 1.085-.973 1.483-.915.119.02.278-.086.355-.23.076-.143.209-.262.294-.262.177-.003 2.03-1.766 2.504-2.382.173-.226.373-.4.445-.386.375.072 1.577-.884 1.587-1.262.002-.084.133-.22.29-.3.158-.081.607-.469 1-.863s.92-.888 1.17-1.098c.292-.244.458-.495.464-.699.006-.317.682-1.773.882-1.902.06-.04.253-.361.434-.72.33-.655.522-.81 1.003-.81.353 0 .264.836-.19 1.798-.18.379-.365.842-.413 1.03-.046.192-.264.445-.499.584-.227.134-.602.507-.833.83-.231.32-.533.62-.671.664-.36.114-.974.69-1.198 1.12-.272.526-.48.723-1.626 1.541-.559.4-1.066.812-1.127.916-.167.29-1.146 1.178-1.298 1.178-.04 0-.343.23-.675.509-.422.356-.722.508-1 .508-.413 0-.641.177-.411.319.279.173-.51.92-2.162 2.05-.384.262-.719.524-.743.582-.026.06-.252.212-.508.342l-1.037.531c-.315.163-.602.299-.639.302-.033.004-.208.138-.381.3-.35.327-2.643 1.477-3.239 1.624a2.44 2.44 0 0 0-.699.325c-.309.225-2.013.871-2.298.871-.078 0-.336.092-.574.205-.238.113-.603.18-.81.15-.311-.047-.484.04-.96.493-.582.55-.697.626-.697.462zm23.452-16.565c-.04-.07-.133-.127-.198-.127-.067 0-.12.06-.12.127 0 .07.09.127.199.127.108 0 .162-.06.12-.127zM67.597 87.471c.372-.493.472-.532.902-.355.238.098.239.111.027.198-.125.053-.261.06-.301.02-.04-.04-.28.08-.53.27l-.458.344zm-50.854-.287c-.328-.314-.615-.571-.637-.571-.231 0-2.457-2.24-2.457-2.473 0-.444.528-.139 1.476.852.552.577 1.374 1.336 1.828 1.686.865.67 1.111 1.079.648 1.079-.143 0-.53-.258-.858-.572zm45.337-.571a.759.759 0 0 1 .318-.124c.07 0 .04.054-.067.124a.759.759 0 0 1-.318.123c-.07 0-.04-.053.067-.123zm-51.113-.507c-1.6-.526-2.275-.828-2.275-1.022 0-.068-.117-.124-.259-.124-.27 0-1.393-1.058-1.394-1.315-.002-.234-.807-.719-1.195-.719-.483 0-1.695-.743-1.783-1.093-.295-1.174.582-1.593.927-.443.157.527.225.568 1.507.897.426.11.58.23.747.583.292.615 1.88 1.92 2.606 2.141.32.098.831.304 1.134.459.382.194.863.298 1.577.341 1.872.111 2.7.707.898.645a3.363 3.363 0 0 0-.7.06c-.194.047-.878-.111-1.79-.41zm-68.31-.637c-.04-.07-.02-.127.046-.127.07 0 .162.06.206.127.04.07.02.127-.047.127-.07 0-.162-.06-.206-.127zM72.56 84.95c-.054-.091 0-.225.136-.325.311-.228.385-.126.15.209-.138.196-.217.229-.287.116zm-46.963-.446c0-.224.274-.185.353.054.026.083-.04.15-.151.15a.202.202 0 0 1-.202-.2zm-1.719-.06c-.281-.455 1.324-2.969 1.675-2.622.06.06.02.175-.083.257a1.95 1.95 0 0 0-.351.403c-.088.138-.275.423-.415.633-.14.21-.312.593-.383.852-.14.51-.31.693-.443.477zm2.399-.19c-.04-.108-.047-.228-.005-.267.112-.112.342.077.342.28 0 .244-.242.235-.337-.013zM20.53 83.02c.046-1.042-.027-1.24-.461-1.24-.167 0-.344-.066-.394-.146-.147-.24.337-.49.946-.49.407 0 .683-.087.977-.312.225-.172.445-.276.488-.232.203.202.047.575-.345.804-.429.253-.711.973-.782 1.991-.077 1.101-.477.752-.43-.375zm6.403.794c-.04-.07-.02-.127.053-.127.074 0 .135.06.135.127 0 .07-.027.127-.053.127-.033 0-.092-.06-.135-.127zm-10.676-.35a8.758 8.758 0 0 1-.879-.742c-.619-.618-1.734-1.022-2.322-.841-.553.17-.77.053-.829-.458-.04-.35-.326-.493-.697-.35-.156.06-.166.113-.046.259.268.323.02.473-.387.233-.205-.121-.373-.26-.373-.31 0-.346-1.92-.666-2.735-.456-.975.251-1.115-.72-.16-1.102.53-.211.536-.22.254-.376l-.289-.159.322-.28c.405-.352.67-.354.972-.006.301.347.298.447-.02.616-.525.282-.068.6.64.444.615-.135.823-.416.543-.732-.225-.254-.223-.256.152-.165.538.13.825.139 1.335.04.437-.086.439-.085.127.095a1.756 1.756 0 0 1-.73.188c-.284.003-.413.067-.413.199 0 .106-.143.248-.318.314-.175.067-.318.18-.318.251 0 .177.143.164.68-.06.59-.246.628-.24.464.067-.074.14-.084.254-.02.254.249 0 1.106-.417 1.203-.586.131-.228.453-.224 1.026.014.413.172.46.172.46-.003 0-.108-.128-.247-.285-.308-1.27-.496-1.547-.7-1.296-.951.418-.419-.04-.666-1.374-.742-1.185-.068-1.477-.213-1.57-.78-.014-.078-.047-.226-.07-.33-.026-.115.068-.204.242-.231.202-.033.286-.13.286-.339 0-.306.316-.53.448-.317.096.156.696.16.696.005 0-.343 1.178-1.281 1.607-1.281.615 0 .872-.17 1.107-.728.363-.86.463-.925 1.44-.925.782 0 .921-.04 1.186-.319.165-.175.532-.379.817-.452.284-.073.607-.16.718-.191.11-.034.411.084.667.257.437.296.51.307 1.17.174.974-.195 1.206-.06 1.762 1.031.538 1.055.548 1.122.175 1.176-.486.069-.463.847.033 1.033.424.16.442.406.027.406-.35 0-1.894-1.81-1.706-2 .088-.088.261-.084.54.014.557.194.626.182.626-.108 0-.176-.122-.282-.413-.357-.227-.06-.42-.175-.429-.259a3.077 3.077 0 0 0-.033-.278c-.027-.188-.693-.154-.972.047-.288.21-.074.586.337.586.131 0 .239.086.239.19 0 .234-.04.234-.786.007-.674-.205-1.63.053-2.265.607-.408.357-1.066.72-1.307.72-.103 0-.259.086-.346.19-.191.23-.55.255-.477.034.027-.088.176-.178.328-.2.327-.046.405-.658.085-.658-.104 0-.19-.047-.19-.11 0-.06.182-.09.406-.06 1.021.118 1.169-.344.197-.618-.872-.246-1.488.075-.928.483.286.21.243.34-.06.18-.374-.2-.526-.04-.433.449l.08.429-.9-.013c-.496-.007-.94.02-.985.066-.129.13.21.471.466.471.371 0 .673.15.508.252-.08.047-.442.013-.805-.083-.763-.198-.979-.152-.979.208 0 .174.084.259.254.259.14 0 .255.066.255.142 0 .091-.103.107-.287.046-.542-.184-1.493-.176-1.493.014 0 .211 1.127.564 1.802.564.463 0 .632-.15.359-.317-.283-.175-.102-.296.256-.171.421.147 1.015-.117 1.015-.452 0-.226.716-.364 1.027-.198.357.19.3.339-.2.52-.246.089-.446.204-.446.257 0 .053-.253.244-.561.425-.782.458-.968.699-.542.699.23 0 .376.102.493.345.113.237.325.39.67.487.404.113.525.217.595.513.259 1.083.959 2.348 1.887 3.408.515.589.616.774.498.916-.2.241-.258.23-.814-.172zm-1.463-2.001a.192.192 0 0 0-.191-.191c-.331 0-.224.25.159.371.02.006.033-.076.033-.18zm-.697-.604c-.18-.422-.37-.467-.86-.206-.313.168-.278.294.127.453.729.289.932.22.733-.248zm-5.278-1.62c.164-.107.161-.124-.027-.126-.118-.001-.25.053-.293.125-.1.16.068.16.317 0zm8.69-5.846c.17-.167-.033-.384-.355-.384-.34 0-.644.303-.514.513.092.15.672.06.87-.129zm.653-.638c-.04-.07-.16-.127-.261-.127s-.184.06-.184.127c0 .07.118.127.262.127.144 0 .226-.06.183-.127zm57.773 10.058c0-.12.425-.524.552-.524.046 0 .013.113-.071.251-.168.268-.48.445-.48.272zm-3.859-.588c.04-.105.122-.19.183-.19.06 0 .077.085.033.19-.04.105-.123.191-.183.191s-.076-.086-.033-.19zm-49.949-.145c.21-.547 2.312-1.224 2.767-.891.377.275.123.487-.483.402-.426-.06-.685 0-1.334.311-.923.442-1.061.468-.95.178zm-4.871-.463c-.476-.272-1.318-1.1-1.318-1.298 0-.289.39-.23.755.113.508.477 1.293.84 1.817.84.498 0 .586.095.326.356-.196.196-1.229.19-1.58-.014zm55.375-.19c0-.104.465-.536.576-.536.033 0-.027.143-.143.317-.201.307-.433.424-.433.22zm-47.16-.142c0-.116.605-.656 1.197-1.068.183-.127.33-.352.33-.508.007-1.18 1.426-3.776 2.064-3.776.185 0 .093.213-.222.509-.174.164-.317.429-.317.588 0 .338-.227.909-.483 1.216-.1.119-.23.662-.291 1.207-.116 1.038-.33 1.383-.783 1.265-.121-.033-.465.108-.763.31-.57.388-.732.444-.732.257zM3.347 80.218c-.412-.356-.674-.78-.88-1.425-.09-.28-.219-.578-.287-.664-.068-.085-.277-.571-.464-1.08l-.341-.925-1.013-.079c-1.543-.12-1.978-.283-2.76-1.035-.808-.777-1.215-1.533-.98-1.817.252-.302.375-.216.692.484.691 1.524 2.504 2.308 4.163 1.8.239-.074.723.853.993 1.899.215.83.593 1.567 1.086 2.113.65.719.477 1.324-.21.73zm17.612-.726c-.04-.07-.211-.127-.373-.127-.33 0-.645-.3-.523-.499.26-.42 1.934-.477 1.934-.067 0 .107-.06.169-.138.138-.444-.184-.536-.194-.708-.086-.15.096-.158.153-.033.278.186.187.21.489.04.489-.067 0-.155-.06-.199-.128zm1.4.003c-.04-.069-.02-.234.053-.368.072-.134.1-.493.067-.797a12.51 12.51 0 0 1-.069-.776c-.001-.122-.06-.222-.13-.222-.069 0-.093-.054-.053-.117.04-.067-.08-.237-.269-.385-.242-.19-.301-.307-.205-.404.487-.487 1.507 1.025 1.36 2.016-.129.86-.527 1.418-.751 1.054zm54.621-.382c.185-.295.444-.42.543-.26.068.111-.402.513-.6.513-.053 0-.026-.114.06-.252zm-70.234-.415a127.33 127.33 0 0 1-.603-1.018 8.644 8.644 0 0 0-1.773-2.074 13.157 13.157 0 0 1-.91-.903c-.325-.352-.687-.677-.803-.721-.222-.085-.223-.477-.003-.546.07-.02.5.307.953.73.455.425.961.825 1.126.89.179.07.272.189.231.295-.084.22.33.34.824.242.226-.047.362-.02.362.07 0 .08-.086.144-.19.144-.253 0-.246.333.005.43.11.04.315.014.455-.06.483-.258.715-.006.254.273-.568.345-.4.526.391.421.701-.092.787.12.108.269-.788.172-.52.677.28.528l.41-.076-.35.288c-.56.461-.293.593.667.331.512-.14.117.344-.445.545-.797.286-.785.286-.993-.06zm11.93-2.223c-.288-.31-.353-.33-.593-.18-.28.174-.55.053-.393-.177.363-.527 2.188-.656 2.188-.154 0 .631-.782.964-1.203.51zm13.278-.222c0-.034.357-.242.793-.462.794-.401.916-.51 1.302-1.16.203-.342.2-.35-.097-.35a.467.467 0 0 0-.438.293c-.143.313-1.04.597-1.887.597-.498 0-.51-.02-.231-.449.286-.437.163-.668-.32-.597-.464.068-.516-.124-.111-.409.39-.272 1.018-.247 1.405.054.495.389.899.327 1.252-.19.364-.535.59-.566.69-.096.04.192.128.48.192.64.259.638-.57 1.67-1.5 1.866-.226.047-.444.14-.484.205-.074.12-.566.168-.566.054zm-2.796-.549c0-.165.29-.407.49-.407.146 0 .137.054-.047.254-.237.262-.445.333-.445.153zm52.243-.637c0-.053.108-.218.24-.36.228-.245.808-1.079 1.112-1.6.258-.441.413-.545.575-.383.112.111.02.31-.37.82-.286.37-.594.844-.685 1.054-.22.501-.872.852-.872.469zm-80.018-.552c-1.01-.332-1.274-.353-2.058-.158-.878.218-1.126.151-1.632-.437-.458-.532-.067-.93.456-.46.2.182.221.164.268-.234.053-.45-.297-.608-1.674-.755-.28-.034-.317-.094-.317-.543 0-.727.498-.783 1.214-.136.38.344.619.456.979.462 1.443.027 2.037.106 2.438.331.598.336.683.617.153.506a60.545 60.545 0 0 0-.748-.151c-.447-.088-1.212.36-1.15.675.032.182.19.22.93.22.66 0 .999.066 1.322.255.76.446.653.697-.181.423zm4.284-.006c-.084-.084-.153-.307-.153-.495s-.086-.375-.19-.415c-.278-.106-.234-.419.09-.645.219-.154.247-.23.127-.35-.12-.12-.188-.12-.306-.001a.658.658 0 0 1-.413.15c-.21-.002-.175-.06.181-.285.344-.22.392-.292.216-.326a.558.558 0 0 0-.413.112c-.223.185-.37.081-.266-.19.04-.105.234-.225.43-.267a3.05 3.05 0 0 0 .693-.26c.319-.171.356-.162.599.147.347.442.611.336 1.155-.464 1.024-1.505 1.948-1.538 3.293-.12 1.01 1.065 1.616 1.247 2.559.766.274-.14.702-.255.952-.255.484 0 .933-.233 1.485-.773.75-.733 1.989-.776 3.04-.107.36.23.754.372 1.029.372.422 0 .866.299.866.583 0 .17-2.024.145-2.134-.027-.5-.776-1.92-.713-2.405.107-.214.363-.349.436-1.043.567a3.995 3.995 0 0 0-1.526.639c-.401.27-1.11.66-1.577.867-.466.208-.848.442-.848.522 0 .08-.1.168-.223.197-.339.08-.667-.02-.667-.21 0-.092-.08-.198-.178-.235-.097-.04-.308-.301-.468-.586-.16-.285-.37-.518-.466-.518-.347 0-.648.258-.729.624-.096.438-.292.543-1.142.609-.348.027-.724.132-.837.234-.248.225-.526.237-.73.033zm2.195-1.34c.178-.193.357-.45.395-.573.04-.122.224-.254.412-.293a2.01 2.01 0 0 0 .532-.192 4.22 4.22 0 0 1 .476-.243c.354-.154.373-.513.033-.602-.14-.033-.254-.14-.254-.229 0-.267-.373-.327-.767-.123-.428.221-.755.72-.523.797.287.095.133.266-.712.795-1.08.676-1.029.619-.738.831.378.277.79.216 1.147-.17zm1.084-1.735c0-.027.09-.084.198-.125.113-.047.164-.02.12.046-.075.121-.318.179-.318.076zm3.56 1.646c0-.027-.115-.02-.254.02-.14.033-.255.119-.255.184 0 .066.114.053.255-.02.14-.075.254-.158.254-.184zm-1.017-.07c0-.07-.086-.128-.191-.128-.105 0-.19.06-.19.128 0 .07.085.126.19.126s.19-.06.19-.126zm-.467-.246c.163-.163-.013-.39-.303-.39-.162 0-.247-.088-.247-.254 0-.299.02-.293-.49-.115-.423.147-.528.42-.21.542a.63.63 0 0 0 .397-.006c.178-.068.185-.04.047.213-.164.306.5.314.804.007zm75.397-5.606c-.046-.073-.04-.372.007-.667.125-.74.102-1.852-.04-2.036-.242-.308-.293-.979-.075-.979.152 0 .13-.06-.088-.234-.382-.31-.255-.655.241-.655.36 0 .692.242.638.463-.014.06.04.338.117.617.208.734.224 1.48.04 1.825-.098.183-.129.472-.078.741.127.675-.47 1.398-.762.925z"
            id="icon" />
    </g>
</svg>